<svg width="71" height="73" viewBox="0 0 71 73" fill="none" xmlns="http://www.w3.org/2000/svg">
<path d="M55.5 42.8257C52.5333 42.8257 49.6332 43.7054 47.1665 45.3536C44.6997 47.0019 42.7771 49.3445 41.6418 52.0854C40.5065 54.8263 40.2094 57.8423 40.7882 60.752C41.367 63.6618 42.7956 66.3345 44.8934 68.4323C46.9912 70.5301 49.6639 71.9587 52.5737 72.5375C55.4834 73.1162 58.4994 72.8192 61.2403 71.6839C63.9812 70.5486 66.3238 68.626 67.9721 66.1592C69.6203 63.6925 70.5 60.7924 70.5 57.8257C70.4957 53.8488 68.914 50.0359 66.1019 47.2238C63.2897 44.4117 59.4769 42.83 55.5 42.8257ZM49.25 55.3257C50.2446 55.3257 51.1984 55.7208 51.9017 56.424C52.6049 57.1273 53 58.0811 53 59.0757V61.5757C53.0009 62.402 52.7289 63.2054 52.2263 63.8612C51.7236 64.517 51.0184 64.9884 50.2203 65.2022C49.4221 65.416 48.5757 65.3601 47.8126 65.0434C47.0494 64.7267 46.4122 64.1668 46 63.4507C45.846 63.1645 45.8095 62.8296 45.8983 62.5169C45.987 62.2043 46.1941 61.9385 46.4755 61.776C46.7569 61.6134 47.0905 61.5668 47.4057 61.6461C47.7209 61.7254 47.9928 61.9243 48.1638 62.2007C48.3005 62.4409 48.513 62.6289 48.768 62.7355C49.023 62.8421 49.3061 62.8612 49.5731 62.7897C49.8401 62.7183 50.0758 62.5604 50.2435 62.3408C50.4113 62.1211 50.5014 61.852 50.5 61.5757V59.0757C50.5 58.7442 50.3683 58.4262 50.1339 58.1918C49.8995 57.9574 49.5815 57.8257 49.25 57.8257C48.9724 57.8137 48.6959 57.8686 48.444 57.9859C48.1921 58.1031 47.9721 58.2793 47.8025 58.4994C47.6525 58.7235 47.4347 58.8937 47.1809 58.985C46.9272 59.0763 46.6509 59.084 46.3925 59.0069C46.1367 58.9318 45.9118 58.7765 45.7511 58.5638C45.5904 58.351 45.5024 58.0923 45.5 57.8257V52.8257C45.5 52.1626 45.7634 51.5268 46.2322 51.0579C46.7011 50.5891 47.337 50.3257 48 50.3257H51.75C52.0815 50.3257 52.3995 50.4574 52.6339 50.6918C52.8683 50.9262 53 51.2442 53 51.5757C53 51.9072 52.8683 52.2251 52.6339 52.4596C52.3995 52.694 52.0815 52.8257 51.75 52.8257H48V55.5007C48.4063 55.3837 48.8272 55.3248 49.25 55.3257V55.3257ZM65.5 60.3257C65.5 61.6518 64.9732 62.9235 64.0355 63.8612C63.0979 64.7989 61.8261 65.3257 60.5 65.3257C59.1739 65.3257 57.9022 64.7989 56.9645 63.8612C56.0268 62.9235 55.5 61.6518 55.5 60.3257V55.3257C55.5003 54.1464 55.9174 53.0052 56.6777 52.1036C57.4379 51.2021 58.4924 50.5983 59.6547 50.3989C60.817 50.1995 62.0124 50.4174 63.0296 51.014C64.0468 51.6107 64.8205 52.5477 65.2138 53.6594C65.2765 53.8159 65.307 53.9834 65.3034 54.1519C65.2997 54.3204 65.2621 54.4864 65.1926 54.64C65.1232 54.7936 65.0234 54.9315 64.8992 55.0455C64.7751 55.1596 64.6292 55.2473 64.4703 55.3035C64.3114 55.3596 64.1427 55.3831 63.9745 55.3724C63.8063 55.3618 63.642 55.3172 63.4915 55.2414C63.3409 55.1656 63.2073 55.0601 63.0985 54.9313C62.9898 54.8025 62.9082 54.6531 62.8588 54.4919C62.663 53.9347 62.2763 53.4647 61.7672 53.1653C61.258 52.8659 60.6593 52.7565 60.0772 52.8564C59.495 52.9563 58.9671 53.259 58.5869 53.711C58.2067 54.163 57.9987 54.735 58 55.3257V60.3257C58 60.9887 58.2634 61.6246 58.7322 62.0935C59.2011 62.5623 59.837 62.8257 60.5 62.8257C61.163 62.8257 61.7989 62.5623 62.2678 62.0935C62.7366 61.6246 63 60.9887 63 60.3257H61.75C61.4185 60.3257 61.1005 60.194 60.8661 59.9596C60.6317 59.7251 60.5 59.4072 60.5 59.0757C60.5 58.7442 60.6317 58.4262 60.8661 58.1918C61.1005 57.9574 61.4185 57.8257 61.75 57.8257H63.625C64.1223 57.8257 64.5992 58.0232 64.9508 58.3749C65.3025 58.7265 65.5 59.2034 65.5 59.7007V60.3257Z" fill="#DB2B39"/>
<path d="M42.1125 69.0759H9.3025L11.1125 62.8259H38.725C38.4825 62.0075 38.3028 61.1717 38.1875 60.3259H11.8363L12.4062 58.3609L25.5 49.3434L38 57.9259V57.8259C38 57.3759 38.0125 56.9384 38.05 56.5009C38.0829 56.0148 38.1413 55.5308 38.225 55.0509C38.4184 53.8231 38.7453 52.6202 39.2 51.4634L36.1875 41.0647V41.0522L31.8125 25.9634C31.8125 25.9484 31.8038 25.9359 31.8013 25.9221L28.345 13.9909C28.8124 13.4466 29.1139 12.7796 29.2136 12.0691C29.3133 11.3586 29.2071 10.6344 28.9076 9.98243C28.6081 9.33047 28.1279 8.77811 27.5239 8.39089C26.9199 8.00367 26.2175 7.79785 25.5 7.79785C24.7825 7.79785 24.0801 8.00367 23.4761 8.39089C22.8721 8.77811 22.3919 9.33047 22.0924 9.98243C21.7929 10.6344 21.6867 11.3586 21.7864 12.0691C21.8861 12.7796 22.1876 13.4466 22.655 13.9909L19.1963 25.9309L19.1875 25.9609L6.69875 69.0759H1.75C1.41848 69.0759 1.10054 69.2076 0.866116 69.442C0.631696 69.6764 0.5 69.9944 0.5 70.3259V71.5759C0.5 71.9074 0.631696 72.2254 0.866116 72.4598C1.10054 72.6942 1.41848 72.8259 1.75 72.8259H46.4875C44.8295 71.8297 43.3505 70.5621 42.1125 69.0759ZM37.4875 54.5384L27.71 47.8259L34.24 43.3259L37.4875 54.5384ZM30.9363 31.9247L27.705 29.7009L29.8625 28.2159L30.9363 31.9247ZM24.8888 15.2646C25.2922 15.3463 25.7078 15.3463 26.1112 15.2646L29.125 25.6871L25.5 28.1871L21.875 25.6871L24.8888 15.2646ZM21.1388 28.2172L23.295 29.7009L20.0637 31.9234L21.1388 28.2172ZM18.9663 35.7172L25.5 31.2184L32.035 35.7184L33.5075 40.8009L25.5 46.3097L17.4888 40.8097L18.9663 35.7172ZM16.76 43.3422L23.2975 47.8259L13.5 54.5759L16.76 43.3422Z" fill="#0065E3"/>
<path d="M18.9411 4.43718C18.7054 4.20417 18.3867 4.07432 18.0553 4.07619C17.7238 4.07807 17.4067 4.21151 17.1736 4.44718C15.3037 6.34881 14.2559 8.90898 14.2559 11.5759C14.2559 14.2429 15.3037 16.8031 17.1736 18.7047C17.2865 18.8308 17.4238 18.9328 17.5773 19.0042C17.7307 19.0757 17.8971 19.1153 18.0663 19.1206C18.2355 19.1259 18.404 19.0967 18.5616 19.0349C18.7192 18.9731 18.8626 18.8799 18.9831 18.761C19.1036 18.6421 19.1987 18.5 19.2626 18.3432C19.3265 18.1865 19.3579 18.0184 19.355 17.8491C19.352 17.6799 19.3146 17.513 19.2452 17.3586C19.1758 17.2042 19.0757 17.0655 18.9511 16.9509C17.5423 15.5181 16.7529 13.5891 16.7529 11.5797C16.7529 9.57027 17.5423 7.64129 18.9511 6.20843C19.067 6.09164 19.1588 5.9531 19.2211 5.80077C19.2833 5.64843 19.3149 5.4853 19.314 5.32073C19.313 5.15616 19.2796 4.9934 19.2156 4.84178C19.1517 4.69015 19.0584 4.55266 18.9411 4.43718Z" fill="#DB2B39"/>
<path d="M32.0589 18.7144C32.2947 18.9475 32.6133 19.0773 32.9447 19.0754C33.2762 19.0735 33.5933 18.9401 33.8264 18.7044C35.6963 16.8028 36.7442 14.2426 36.7442 11.5757C36.7442 8.90873 35.6963 6.34856 33.8264 4.44693C33.5901 4.22971 33.2793 4.11171 32.9584 4.11738C32.6375 4.12305 32.331 4.25195 32.1026 4.47738C31.8741 4.70281 31.7411 5.00749 31.7311 5.3283C31.7211 5.64912 31.8349 5.96148 32.0489 6.20068C33.4577 7.63354 34.2472 9.56252 34.2472 11.5719C34.2472 13.5813 33.4577 15.5103 32.0489 16.9432C31.933 17.06 31.8412 17.1985 31.779 17.3509C31.7167 17.5032 31.6851 17.6663 31.6861 17.8309C31.687 17.9955 31.7204 18.1582 31.7844 18.3098C31.8484 18.4615 31.9417 18.599 32.0589 18.7144V18.7144Z" fill="#DB2B39"/>
<path d="M13.3327 22.5509C13.5797 22.5508 13.8212 22.4776 14.0266 22.3404C14.2321 22.2032 14.3922 22.0082 14.4869 21.78C14.5816 21.5518 14.6066 21.3007 14.5587 21.0584C14.5107 20.816 14.3921 20.5933 14.2177 20.4184C11.844 18.0325 10.5116 14.8039 10.5116 11.4384C10.5116 8.07288 11.844 4.84427 14.2177 2.45838C14.3369 2.3429 14.4319 2.20483 14.4972 2.05224C14.5625 1.89964 14.5967 1.73557 14.5979 1.5696C14.5991 1.40363 14.5673 1.23909 14.5042 1.08556C14.4411 0.932037 14.3481 0.79261 14.2306 0.675414C14.1131 0.558219 13.9734 0.465602 13.8197 0.402969C13.666 0.340335 13.5013 0.308938 13.3354 0.31061C13.1694 0.312283 13.0054 0.34699 12.853 0.412708C12.7006 0.478426 12.5628 0.573838 12.4477 0.693378C9.6081 3.54853 8.01416 7.4116 8.01416 11.4384C8.01416 15.4652 9.6081 19.3282 12.4477 22.1834C12.5634 22.3003 12.7012 22.3931 12.8532 22.4562C13.0051 22.5193 13.1681 22.5515 13.3327 22.5509Z" fill="#DB2B39"/>
<path d="M37.6677 22.551C37.8322 22.5515 37.9952 22.5193 38.1471 22.4562C38.2991 22.3931 38.4369 22.3004 38.5527 22.1835C41.3923 19.3283 42.9862 15.4653 42.9862 11.4385C42.9862 7.4117 41.3923 3.54863 38.5527 0.693478C38.3173 0.465425 38.0017 0.338966 37.6739 0.341341C37.3462 0.343717 37.0325 0.474735 36.8004 0.706176C36.5683 0.937617 36.4364 1.25096 36.4331 1.57872C36.4298 1.90647 36.5553 2.22241 36.7827 2.45848C39.1563 4.84437 40.4888 8.07298 40.4888 11.4385C40.4888 14.804 39.1563 18.0326 36.7827 20.4185C36.6083 20.5934 36.4896 20.8161 36.4417 21.0585C36.3938 21.3008 36.4188 21.5519 36.5134 21.7801C36.6081 22.0083 36.7683 22.2033 36.9737 22.3405C37.1792 22.4777 37.4207 22.5509 37.6677 22.551V22.551Z" fill="#DB2B39"/>
</svg>
