<svg width="74" height="75" viewBox="0 0 74 75" fill="none" xmlns="http://www.w3.org/2000/svg">
<path d="M38.5209 1.50775C38.5209 0.717038 37.8798 0.0761719 37.0893 0.0761719C36.2987 0.0761719 35.6577 0.717038 35.6577 1.50775V2.93932H38.5209V1.50775Z" fill="#0065E3"/>
<path d="M48.5421 4.88519C48.5421 4.09464 47.9012 3.45361 47.1105 3.45361H27.0688C26.2782 3.45361 25.6372 4.09448 25.6372 4.88519V22.0638C25.6372 22.8543 26.2781 23.4954 27.0688 23.4954H47.1105C47.9011 23.4954 48.5421 22.8545 48.5421 22.0638V4.88519Z" fill="#DB2B39"/>
<path d="M31.2739 64.0547V72.644C31.2739 73.4345 31.9148 74.0756 32.7055 74.0756H41.2948C42.0854 74.0756 42.7264 73.4347 42.7264 72.644V64.0547H31.2739Z" fill="#0065E3"/>
<path d="M26.6361 60.8678L26.6361 60.8679C26.9352 61.5411 27.6026 61.9748 28.339 61.9747H28.3391H45.661H45.6611C46.3976 61.9748 47.065 61.541 47.3639 60.868L47.364 60.8679L51.5856 51.3667L51.5868 51.3639C51.6929 51.1271 51.7475 50.8708 51.7471 50.6119L51.7471 50.6103L51.7471 25.7543C51.7471 25.516 51.5539 25.3228 51.3156 25.3228H49.8841H22.6845C22.4462 25.3228 22.2529 25.516 22.2529 25.7543L22.2529 50.6085C22.2529 50.6087 22.2529 50.6088 22.2529 50.6089L26.6361 60.8678ZM26.6361 60.8678L22.4135 51.3662L26.6361 60.8678Z" fill="#0065E3" stroke="#0065E3" stroke-width="2"/>
<path d="M26.9585 51.0752H46.9585" stroke="white" stroke-width="2" stroke-linecap="round"/>
<path d="M26.9585 47.0752H46.9585" stroke="white" stroke-width="2" stroke-linecap="round"/>
<path d="M26.9585 43.0752H46.9585" stroke="white" stroke-width="2" stroke-linecap="round"/>
</svg>
