<svg width="61" height="76" viewBox="0 0 61 76" fill="none" xmlns="http://www.w3.org/2000/svg">
<path d="M24.5524 58.7505C26.6447 58.7485 28.7348 58.6142 30.8102 58.3484C31.2852 54.2357 33.2551 50.441 36.3452 47.6858C39.4354 44.9307 43.4303 43.4072 47.5703 43.4052C48.089 43.4052 48.5985 43.4374 49.1049 43.4819V12.7147C49.1049 5.8308 38.3202 0.438477 24.5524 0.438477C10.7847 0.438477 0 5.8308 0 12.7147V46.4743C0 53.3582 10.7847 58.7505 24.5524 58.7505ZM24.5524 3.50753C37.2123 3.50753 46.0358 8.3597 46.0358 12.7147C46.0358 17.0697 37.2123 21.9218 24.5524 21.9218C11.8926 21.9218 3.06905 17.0697 3.06905 12.7147C3.06905 8.3597 11.8926 3.50753 24.5524 3.50753ZM42.9667 24.9909V28.06H38.3632V24.9909H42.9667ZM3.06905 29.5945C3.06905 33.9495 11.8926 38.8016 24.5524 38.8016C37.2123 38.8016 46.0358 33.9495 46.0358 29.5945V35.5975C41.8926 39.3663 33.9238 41.8707 24.5524 41.8707C15.1811 41.8707 7.21228 39.3663 3.06905 35.5975V29.5945Z" fill="#0065E3"/>
<path d="M46.8991 47.8164C44.1676 47.8164 41.4975 48.6264 39.2263 50.1439C36.9551 51.6615 35.185 53.8184 34.1397 56.342C33.0944 58.8656 32.8209 61.6425 33.3538 64.3215C33.8866 67.0005 35.202 69.4613 37.1335 71.3928C39.0649 73.3243 41.5258 74.6396 44.2048 75.1725C46.8838 75.7054 49.6607 75.4319 52.1843 74.3866C54.7078 73.3413 56.8648 71.5711 58.3823 69.3C59.8999 67.0288 60.7099 64.3587 60.7099 61.6271C60.7099 57.9643 59.2548 54.4515 56.6648 51.8615C54.0748 49.2715 50.562 47.8164 46.8991 47.8164ZM39.9938 57.0236H48.5656L46.5815 55.0394L48.7513 52.8696L53.3549 57.4732C53.5694 57.6878 53.7155 57.9612 53.7747 58.2588C53.8339 58.5564 53.8035 58.8649 53.6874 59.1453C53.5713 59.4256 53.3746 59.6653 53.1223 59.8339C52.87 60.0025 52.5734 60.0926 52.27 60.0926H39.9938V57.0236ZM53.8045 66.2307H45.2326L47.2168 68.2149L45.047 70.3847L40.4434 65.7811C40.2288 65.5665 40.0827 65.2931 40.0236 64.9955C39.9644 64.6979 39.9948 64.3894 40.1109 64.109C40.227 63.8286 40.4236 63.589 40.6759 63.4204C40.9282 63.2518 41.2248 63.1617 41.5283 63.1617H53.8045V66.2307Z" fill="#DB2B39"/>
<path d="M16.9756 13.4912H19.2386V17.2297H16.9756V13.4912Z" fill="#DB2B39"/>
<path d="M21.2725 8.96582H23.5355V17.2404H21.2725V8.96582Z" fill="#DB2B39"/>
<path d="M25.5693 11.5176H27.8324V17.24H25.5693V11.5176Z" fill="#DB2B39"/>
<path d="M29.8662 8.96582H32.1293V17.2404H29.8662V8.96582Z" fill="#DB2B39"/>
<path d="M30.8328 4.65918C30.2346 4.65918 29.7461 5.13771 29.7362 5.73587L27.1541 7.37085C27.0145 7.31103 26.865 7.27115 26.6955 7.27115C26.526 7.27115 26.3665 7.31103 26.217 7.38082L23.4953 5.7259C23.4754 5.13771 22.9969 4.65918 22.3987 4.65918C21.7906 4.65918 21.3021 5.14768 21.3021 5.75581C21.3021 5.84553 21.3121 5.93526 21.332 6.01501L18.2714 9.28497C18.2116 9.275 18.1418 9.26503 18.082 9.26503C17.4739 9.26503 16.9854 9.75353 16.9854 10.3617C16.9854 10.9698 17.4739 11.4583 18.082 11.4583C18.6901 11.4583 19.1786 10.9698 19.1786 10.3617C19.1786 10.2719 19.1686 10.1822 19.1487 10.1025L22.2093 6.84247C22.2691 6.85244 22.3389 6.86241 22.3987 6.86241C22.5682 6.86241 22.7277 6.82253 22.8772 6.75275L25.6089 8.40766C25.6288 8.99585 26.1073 9.47438 26.7055 9.47438C27.3036 9.47438 27.7921 8.99585 27.8021 8.39769L30.3842 6.76272C30.5238 6.82253 30.6733 6.86241 30.8428 6.86241C31.4509 6.86241 31.9394 6.37391 31.9394 5.76578C31.9394 5.15765 31.4409 4.65918 30.8328 4.65918Z" fill="#DB2B39"/>
</svg>
