<svg width="71" height="71" viewBox="0 0 71 71" fill="none" xmlns="http://www.w3.org/2000/svg">
<path d="M65.5 57.5762H68V63.8262H65.5V57.5762Z" fill="#0065E3"/>
<path d="M13 6.32617H15.5V12.5762H13V6.32617Z" fill="#0065E3"/>
<path d="M8 0.0761719H10.5V3.82617H8V0.0761719Z" fill="#0065E3"/>
<path d="M15.5 1.32617C15.5 0.994651 15.3683 0.676709 15.1339 0.442288C14.8995 0.207868 14.5815 0.0761719 14.25 0.0761719H13V3.82617H15.5V1.32617Z" fill="#0065E3"/>
<path d="M8 6.32617H10.5V18.8262H8V6.32617Z" fill="#0065E3"/>
<path d="M3 1.32617V3.82617H5.5V0.0761719H4.25C3.91848 0.0761719 3.60054 0.207868 3.36612 0.442288C3.1317 0.676709 3 0.994651 3 1.32617Z" fill="#0065E3"/>
<path d="M60.5 66.3262H63V70.0762H60.5V66.3262Z" fill="#0065E3"/>
<path d="M65.5 70.0762H66.75C67.0815 70.0762 67.3995 69.9445 67.6339 69.7101C67.8683 69.4756 68 69.1577 68 68.8262V66.3262H65.5V70.0762Z" fill="#0065E3"/>
<path d="M55.5 57.5762H58V63.8262H55.5V57.5762Z" fill="#0065E3"/>
<path d="M60.5 51.3262H63V63.8262H60.5V51.3262Z" fill="#0065E3"/>
<path d="M3 6.32617H5.5V12.5762H3V6.32617Z" fill="#0065E3"/>
<path d="M55.5 68.8262C55.5 69.1577 55.6317 69.4756 55.8661 69.7101C56.1005 69.9445 56.4185 70.0762 56.75 70.0762H58V66.3262H55.5V68.8262Z" fill="#0065E3"/>
<path d="M0.5 16.3262V17.6387C0.502975 18.3424 0.577949 19.044 0.72375 19.7324L1.8675 25.0762H6.75C7.08152 25.0762 7.39946 25.2079 7.63388 25.4423C7.8683 25.6767 8 25.9947 8 26.3262C8 26.6577 7.8683 26.9756 7.63388 27.2101C7.39946 27.4445 7.08152 27.5762 6.75 27.5762H2.4025L2.9375 30.0762H6.75C7.08152 30.0762 7.39946 30.2079 7.63388 30.4423C7.8683 30.6767 8 30.9947 8 31.3262C8 31.6577 7.8683 31.9756 7.63388 32.2101C7.39946 32.4445 7.08152 32.5762 6.75 32.5762H3.4725L3.7975 34.0899C3.85799 34.3701 4.01296 34.6211 4.23644 34.8006C4.45992 34.9802 4.73833 35.0775 5.025 35.0762H13.475C13.7624 35.0772 14.0413 34.9792 14.2649 34.7987C14.4885 34.6181 14.643 34.3661 14.7025 34.0849L15.0263 32.5762H11.75C11.4185 32.5762 11.1005 32.4445 10.8661 32.2101C10.6317 31.9756 10.5 31.6577 10.5 31.3262C10.5 30.9947 10.6317 30.6767 10.8661 30.4423C11.1005 30.2079 11.4185 30.0762 11.75 30.0762H15.5613L16.0963 27.5762H11.75C11.4185 27.5762 11.1005 27.4445 10.8661 27.2101C10.6317 26.9756 10.5 26.6577 10.5 26.3262C10.5 25.9947 10.6317 25.6767 10.8661 25.4423C11.1005 25.2079 11.4185 25.0762 11.75 25.0762H16.6325L17.7775 19.7274C17.9225 19.0406 17.9971 18.3407 18 17.6387V16.3262C18 15.9947 17.8683 15.6767 17.6339 15.4423C17.3995 15.2079 17.0815 15.0762 16.75 15.0762H13V18.8262C13 19.4892 12.7366 20.1251 12.2678 20.5939C11.7989 21.0628 11.163 21.3262 10.5 21.3262H8C7.33696 21.3262 6.70107 21.0628 6.23223 20.5939C5.76339 20.1251 5.5 19.4892 5.5 18.8262V15.0762H1.75C1.41848 15.0762 1.10054 15.2079 0.866116 15.4423C0.631696 15.6767 0.5 15.9947 0.5 16.3262Z" fill="#DB2B39"/>
<path d="M33 15.7012V54.4512C33 57.2691 31.8806 59.9716 29.888 61.9642C27.8954 63.9568 25.1929 65.0762 22.375 65.0762C19.5571 65.0762 16.8546 63.9568 14.862 61.9642C12.8694 59.9716 11.75 57.2691 11.75 54.4512V37.5762H6.75V54.4512C6.75 58.5952 8.3962 62.5695 11.3265 65.4997C14.2567 68.43 18.231 70.0762 22.375 70.0762C26.519 70.0762 30.4933 68.43 33.4235 65.4997C36.3538 62.5695 38 58.5952 38 54.4512V15.7012C38 12.8832 39.1194 10.1807 41.112 8.18816C43.1046 6.19559 45.8071 5.07617 48.625 5.07617C51.4429 5.07617 54.1454 6.19559 56.138 8.18816C58.1306 10.1807 59.25 12.8832 59.25 15.7012V32.5762H64.25V15.7012C64.25 11.5572 62.6038 7.58288 59.6736 4.65263C56.7433 1.72237 52.769 0.0761719 48.625 0.0761719C44.481 0.0761719 40.5067 1.72237 37.5765 4.65263C34.6462 7.58288 33 11.5572 33 15.7012V15.7012Z" fill="#0065E3"/>
<path d="M69.1325 45.0762H64.25C63.9185 45.0762 63.6005 44.9445 63.3661 44.7101C63.1317 44.4756 63 44.1577 63 43.8262C63 43.4947 63.1317 43.1767 63.3661 42.9423C63.6005 42.7079 63.9185 42.5762 64.25 42.5762H68.5975L68.0625 40.0762H64.25C63.9185 40.0762 63.6005 39.9445 63.3661 39.7101C63.1317 39.4756 63 39.1577 63 38.8262C63 38.4947 63.1317 38.1767 63.3661 37.9423C63.6005 37.7079 63.9185 37.5762 64.25 37.5762H67.5275L67.2025 36.0624C67.142 35.7822 66.987 35.5313 66.7636 35.3517C66.5401 35.1722 66.2617 35.0749 65.975 35.0762H57.525C57.2376 35.0751 56.9587 35.1731 56.7351 35.3537C56.5115 35.5342 56.357 35.7863 56.2975 36.0674L55.9738 37.5762H59.25C59.5815 37.5762 59.8995 37.7079 60.1339 37.9423C60.3683 38.1767 60.5 38.4947 60.5 38.8262C60.5 39.1577 60.3683 39.4756 60.1339 39.7101C59.8995 39.9445 59.5815 40.0762 59.25 40.0762H55.4388L54.9037 42.5762H59.25C59.5815 42.5762 59.8995 42.7079 60.1339 42.9423C60.3683 43.1767 60.5 43.4947 60.5 43.8262C60.5 44.1577 60.3683 44.4756 60.1339 44.7101C59.8995 44.9445 59.5815 45.0762 59.25 45.0762H54.3675L53.2225 50.4249C53.0775 51.1118 53.0029 51.8117 53 52.5137V53.8262C53 54.1577 53.1317 54.4756 53.3661 54.7101C53.6005 54.9445 53.9185 55.0762 54.25 55.0762H58V51.3262C58 50.6631 58.2634 50.0273 58.7322 49.5584C59.2011 49.0896 59.837 48.8262 60.5 48.8262H63C63.663 48.8262 64.2989 49.0896 64.7678 49.5584C65.2366 50.0273 65.5 50.6631 65.5 51.3262V55.0762H69.25C69.5815 55.0762 69.8995 54.9445 70.1339 54.7101C70.3683 54.4756 70.5 54.1577 70.5 53.8262V52.5137C70.497 51.81 70.4221 51.1084 70.2763 50.4199L69.1325 45.0762Z" fill="#DB2B39"/>
</svg>
