<svg width="70" height="71" viewBox="0 0 70 71" fill="none" xmlns="http://www.w3.org/2000/svg">
<path d="M12.3173 48.1162C11.7112 48.7013 11.0242 49.1964 10.2773 49.5862L13.1123 53.81C13.5286 54.4274 13.7507 55.1553 13.7498 55.9V70.5762H16.2498V54.3262C16.2508 54.057 16.1663 53.7944 16.0086 53.5762L12.3173 48.1162Z" fill="#0065E3"/>
<path d="M54.01 53.5512C53.8427 53.7751 53.7515 54.0467 53.75 54.3262V70.5762H56.25V55.9C56.2492 55.1547 56.4717 54.4263 56.8888 53.8087L59.7225 49.5862C58.9757 49.1964 58.2887 48.7013 57.6825 48.1162L54.01 53.5512Z" fill="#0065E3"/>
<path d="M63.75 48.0762C67.2018 48.0762 70 45.278 70 41.8262C70 38.3744 67.2018 35.5762 63.75 35.5762C60.2982 35.5762 57.5 38.3744 57.5 41.8262C57.5 45.278 60.2982 48.0762 63.75 48.0762Z" fill="#DB2B39"/>
<path d="M36.25 15.4761C35.422 15.6094 34.578 15.6094 33.75 15.4761V70.5761H36.25V15.4761Z" fill="#0065E3"/>
<path d="M35 13.0762C38.4518 13.0762 41.25 10.278 41.25 6.82617C41.25 3.37439 38.4518 0.576172 35 0.576172C31.5482 0.576172 28.75 3.37439 28.75 6.82617C28.75 10.278 31.5482 13.0762 35 13.0762Z" fill="#DB2B39"/>
<path d="M44 34.8263C43.8398 35.0437 43.7523 35.3062 43.75 35.5763V70.5762H46.25V37.1825C46.2485 36.4067 46.4893 35.6498 46.9387 35.0175L53.4388 25.82C52.6945 25.4277 52.0104 24.9305 51.4075 24.3438L44 34.8263Z" fill="#0065E3"/>
<path d="M57.5 24.3262C60.9518 24.3262 63.75 21.528 63.75 18.0762C63.75 14.6244 60.9518 11.8262 57.5 11.8262C54.0482 11.8262 51.25 14.6244 51.25 18.0762C51.25 21.528 54.0482 24.3262 57.5 24.3262Z" fill="#DB2B39"/>
<path d="M12.5 24.3262C15.9518 24.3262 18.75 21.528 18.75 18.0762C18.75 14.6244 15.9518 11.8262 12.5 11.8262C9.04822 11.8262 6.25 14.6244 6.25 18.0762C6.25 21.528 9.04822 24.3262 12.5 24.3262Z" fill="#DB2B39"/>
<path d="M23.7498 37.1826V70.5763H26.2498V35.5763C26.2507 35.3071 26.1663 35.0445 26.0085 34.8263L18.5923 24.3413C17.9897 24.9309 17.3057 25.431 16.561 25.8263L23.061 35.0251C23.5094 35.6551 23.7502 36.4093 23.7498 37.1826Z" fill="#0065E3"/>
<path d="M6.25 48.0762C9.70178 48.0762 12.5 45.278 12.5 41.8262C12.5 38.3744 9.70178 35.5762 6.25 35.5762C2.79822 35.5762 0 38.3744 0 41.8262C0 45.278 2.79822 48.0762 6.25 48.0762Z" fill="#DB2B39"/>
</svg>
