<svg width="75" height="76" viewBox="0 0 75 76" fill="none" xmlns="http://www.w3.org/2000/svg">
<path d="M72.8027 37.9385C71.5892 37.9385 70.6131 38.9252 70.5333 40.1361C69.3985 57.37 55.0161 71.0439 37.5 71.0439C19.2456 71.0439 4.39453 56.1929 4.39453 37.9385C4.39453 20.4224 18.0684 6.04 35.3023 4.90515C36.5132 4.82541 37.5 3.84926 37.5 2.63574C37.5 1.42223 36.5151 0.431747 35.3036 0.501948C26.1483 1.03246 17.5926 4.87345 11.0139 11.4523C3.91157 18.5548 0 27.961 0 37.9385C0 47.916 3.91143 57.3223 11.0139 64.4246C18.1163 71.5269 27.5225 75.4385 37.5 75.4385C47.4775 75.4385 56.8838 71.5271 63.9863 64.4246C70.5652 57.8457 74.406 49.2902 74.9365 40.1349C75.0067 38.9234 74.0163 37.9385 72.8027 37.9385Z" fill="#0065E3"/>
<path d="M49.8809 13.6556C51.8725 17.2582 53.2945 21.7582 54.1081 26.9518H64.0121C62.5813 23.5352 60.4758 20.3883 57.7626 17.6752C55.0531 14.9657 51.9108 12.8624 48.4995 11.4316C48.982 12.1232 49.4435 12.8643 49.8809 13.6556Z" fill="#0065E3"/>
<path d="M35.3029 26.9519V9.55762C32.9599 10.3825 30.7626 12.5188 28.9616 15.7765C27.6713 18.1101 26.2255 21.7004 25.3345 26.9519H35.3029Z" fill="#0065E3"/>
<path d="M24.4829 37.9265C24.4829 40.3278 24.5882 42.5223 24.7715 44.5303H35.3028V31.3467H24.7696C24.5875 33.3481 24.4829 35.5345 24.4829 37.9265Z" fill="#0065E3"/>
<path d="M39.6973 26.9519H49.6623C48.7705 21.7041 47.325 18.1152 46.0351 15.7817C44.2348 12.525 42.0388 10.3879 39.6973 9.56055V26.9519Z" fill="#0065E3"/>
<path d="M54.9112 37.9479C54.9112 40.227 54.8186 42.4241 54.6378 44.5303H65.4411C65.948 42.3922 66.2107 40.1839 66.2107 37.9385C66.2107 35.693 65.948 33.4848 65.4411 31.3467H54.6362C54.8182 33.4587 54.9112 35.662 54.9112 37.9479Z" fill="#0065E3"/>
<path d="M35.3026 66.3162V48.9248H25.3374C26.2293 54.1722 27.6749 57.7607 28.9646 60.0941C30.7649 63.3513 32.9609 65.4887 35.3026 66.3162Z" fill="#0065E3"/>
<path d="M25.1188 62.22C23.1275 58.6175 21.7055 54.118 20.8919 48.9248H10.9878C12.4185 52.3414 14.5241 55.4883 17.2373 58.2014C19.9469 60.911 23.0893 63.0144 26.5008 64.4451C26.0181 63.7533 25.5564 63.0118 25.1188 62.22Z" fill="#0065E3"/>
<path d="M39.6973 48.9248V66.3189C42.0403 65.4939 44.2374 63.3575 46.0383 60.0997C47.3282 57.7662 48.7739 54.176 49.6649 48.9248H39.6973Z" fill="#0065E3"/>
<path d="M54.1106 48.9248C53.2979 54.1208 51.876 58.6225 49.8841 62.2257C49.4485 63.0138 48.9891 63.7521 48.5088 64.441C51.9166 63.0105 55.0556 60.9084 57.7628 58.2014C60.4758 55.4883 62.5815 52.3414 64.0123 48.9248H54.1106Z" fill="#0065E3"/>
<path d="M20.0883 37.9265C20.0883 35.6482 20.1809 33.4521 20.3615 31.3467H9.55869C9.05171 33.4848 8.78906 35.693 8.78906 37.9385C8.78906 40.1839 9.05171 42.3922 9.55869 44.5303H20.3632C20.1814 42.4174 20.0883 40.2132 20.0883 37.9265Z" fill="#0065E3"/>
<path d="M20.8888 26.9523C21.7014 21.7561 23.1236 17.254 25.1156 13.6506C25.5511 12.863 26.0102 12.1251 26.4904 11.4365C23.0829 12.8671 19.9441 14.969 17.2373 17.6757C14.5241 20.3888 12.4185 23.5357 10.9878 26.9523H20.8888Z" fill="#0065E3"/>
<path d="M50.5167 37.9479C50.5167 35.5476 50.4114 33.3541 50.2283 31.3467H39.6973V44.5303H50.2299C50.412 42.5281 50.5167 40.3408 50.5167 37.9479Z" fill="#0065E3"/>
<path d="M46.0386 6.10036C44.8664 5.78606 44.1708 4.58095 44.4851 3.40869C44.7994 2.23643 46.0046 1.54094 47.1768 1.85524C48.3491 2.16954 49.0447 3.37466 48.7304 4.54691C48.4161 5.71917 47.2109 6.41466 46.0386 6.10036Z" fill="#DB2B39"/>
<path d="M60.7971 14.6375C59.9392 13.7795 59.9392 12.3885 60.7971 11.5305C61.6551 10.6726 63.0461 10.6726 63.9041 11.5305C64.762 12.3885 64.762 13.7795 63.9041 14.6375C63.0461 15.4954 61.6551 15.4954 60.7971 14.6375Z" fill="#DB2B39"/>
<path d="M66.0415 21.4575C65.4347 20.4066 65.7949 19.0628 66.8458 18.456C67.8967 17.8493 69.2405 18.2093 69.8473 19.2602C70.454 20.3111 70.0939 21.6549 69.043 22.2617C67.9921 22.8684 66.6483 22.5084 66.0415 21.4575Z" fill="#DB2B39"/>
<path d="M69.3464 29.397C69.0321 28.2247 69.7277 27.0196 70.9 26.7053C72.0722 26.391 73.2774 27.0865 73.5917 28.2588C73.906 29.431 73.2104 30.6361 72.0382 30.9504C70.8659 31.2647 69.6607 30.5692 69.3464 29.397Z" fill="#DB2B39"/>
<path d="M53.979 9.39648C52.9281 8.78973 52.568 7.44592 53.1748 6.39502C53.7816 5.34411 55.1254 4.98406 56.1763 5.59082C57.2272 6.19758 57.5872 7.54138 56.9805 8.59229C56.3737 9.64319 55.0299 10.0032 53.979 9.39648Z" fill="#DB2B39"/>
</svg>
