<svg width="73" height="73" viewBox="0 0 73 73" fill="none" xmlns="http://www.w3.org/2000/svg">
<path fill-rule="evenodd" clip-rule="evenodd" d="M22.7452 72.438C10.3393 72.438 0.282162 62.3816 0.282162 49.9755C0.282162 37.5696 10.3393 27.5127 22.7452 27.5127C35.151 27.5127 45.208 37.5696 45.208 49.9755C45.208 62.3816 35.151 72.438 22.7452 72.438ZM23.0178 69.9403C22.9941 69.8498 22.9597 69.76 22.914 69.6732C21.7795 67.5174 21.7177 65.8758 22.0842 64.6522C22.4585 63.4024 23.3364 62.4015 24.4125 61.6615C25.1879 61.1286 25.3243 60.2164 25.3087 59.6753C25.2924 59.1059 25.0994 58.3337 24.5234 57.8142C24.0694 57.4046 23.8771 56.8904 23.8766 56.4832C23.8761 56.1007 24.0276 55.8871 24.2187 55.7824C28.3199 53.9809 29.636 50.5424 30.0993 47.7628C30.2865 46.6394 30.3426 45.5712 30.3844 44.7743L30.3845 44.7729C30.3937 44.5985 30.4022 44.4366 30.4112 44.2905C30.4158 44.2165 30.4204 44.1483 30.4251 44.0857C32.0716 44.2479 32.8283 44.904 33.222 45.5467C33.7425 46.3964 33.8316 47.5478 33.7423 48.6077C33.653 49.6689 34.4108 50.3746 35.0135 50.6511C35.0988 50.6902 35.2068 50.7707 35.3099 51.0463C35.4228 51.3481 35.4898 51.7899 35.5 52.3828C35.5099 52.9647 35.465 53.6081 35.4051 54.2841C35.3906 54.4467 35.3751 54.6134 35.3594 54.7815C35.3125 55.2849 35.2644 55.8023 35.2409 56.265C35.1904 57.2606 35.9053 57.8751 36.4037 58.1214C36.557 58.1971 36.7466 58.3718 36.925 58.7706C37.1047 59.1724 37.2315 59.7146 37.2977 60.3612C37.4162 61.5186 37.3214 62.8134 37.1714 63.7799C33.5949 67.5168 28.581 69.8661 23.0178 69.9403ZM20.2498 38.4321C21.5869 38.4321 22.8766 38.8358 23.7502 39.6803C24.5831 40.4854 25.2148 41.8624 24.9381 44.214C24.6742 46.4575 23.7318 47.518 22.6429 48.4367C22.4096 48.6336 22.176 48.8181 21.9276 49.0143L21.7337 49.1678C21.4209 49.416 21.0878 49.6852 20.7686 49.9795C20.1211 50.5767 19.4953 51.3094 19.0911 52.3199C18.538 53.7028 17.7942 54.3676 17.3382 54.5461C17.1363 54.625 17.0496 54.5922 17.0261 54.5818C16.9989 54.5698 16.8711 54.5028 16.7347 54.2034C16.3711 53.1388 15.8413 52.3056 15.0615 51.7605C14.2682 51.206 13.3837 51.0674 12.5674 51.0674C11.8599 51.0674 11.083 51.1754 10.3474 51.2777L10.0922 51.313C9.24544 51.4291 8.38125 51.5354 7.4584 51.5354C7.02974 51.5354 6.78951 51.4127 6.62728 51.2687C6.44133 51.1041 6.26101 50.8231 6.12561 50.3789C5.85356 49.4898 5.85793 48.2744 6.00643 47.1676H14.0102C15.1796 47.1676 16.0945 46.4447 16.5756 45.6029C17.0531 44.7673 17.2055 43.651 16.7174 42.6179C16.4386 41.8677 16.4669 41.3003 16.61 40.8623C16.7626 40.3954 17.0827 39.9659 17.5389 39.5858C17.9961 39.2048 18.5502 38.9079 19.0813 38.7077C19.6296 38.5011 20.0597 38.4321 20.2498 38.4321Z" fill="#0065E3"/>
<g clip-path="url(#clip0_109_1777)">
<path d="M62.2375 15.0694C60.5213 12.7091 57.939 11.1258 55.057 10.6669C52.175 10.208 49.2287 10.911 46.8643 12.6215C44.9318 14.0189 43.511 16.0117 42.82 18.2942C42.82 18.2942 42.6762 18.7692 42.6589 18.8424L39.5562 31.5197L52.5765 32.5082C52.6453 32.5127 53.1413 32.5251 53.1413 32.5251L53.1443 32.5241C55.5275 32.5761 57.8619 31.8449 59.7896 30.4426C62.1499 28.7264 63.7332 26.1441 64.1921 23.2621C64.651 20.3802 63.948 17.4338 62.2375 15.0694ZM50.0868 23.8821C49.622 23.2412 49.3576 22.477 49.3272 21.6859C49.2968 20.8948 49.5016 20.1125 49.9158 19.4378C50.33 18.7632 50.935 18.2265 51.6542 17.8957C52.3734 17.5648 53.1746 17.4547 53.9564 17.5792C54.7382 17.7037 55.4655 18.0572 56.0464 18.595C56.6273 19.1329 57.0356 19.8309 57.2198 20.6009C57.404 21.3708 57.3557 22.1781 57.0811 22.9206C56.8065 23.6631 56.3178 24.3074 55.677 24.7722C54.8172 25.3942 53.7458 25.6498 52.6978 25.4829C51.6499 25.316 50.7109 24.7403 50.0868 23.8821Z" fill="#DB2B39"/>
</g>
<g clip-path="url(#clip1_109_1777)">
<path d="M21.9106 16.6643L21.9107 16.6621C22.4749 15.0654 22.5111 13.3119 22.014 11.6707C21.4058 9.66121 20.053 7.96672 18.2524 6.95892C16.4519 5.95111 14.3505 5.71228 12.4092 6.2948M21.9106 16.6643L21.9039 16.6619L21.4397 16.4963L21.4397 16.4963L21.4397 16.4964L21.4396 16.4965L21.4394 16.4972L21.4384 16.5L21.4347 16.5105L21.4211 16.5485L21.4123 16.5731M21.9106 16.6643C21.9106 16.6643 21.7922 16.9963 21.7739 17.0416M21.9106 16.6643L21.4107 16.655L21.4108 16.6528L21.4123 16.5731M21.4123 16.5731L21.4123 16.5718L21.4392 16.4955C21.9675 15.0006 22.0022 13.3563 21.5354 11.8156L21.5354 11.8155C20.964 9.92745 19.6938 8.33863 18.0082 7.39522C16.3236 6.45232 14.3622 6.23094 12.5535 6.77353M21.4123 16.5731L21.3787 16.6667C21.3628 16.7108 21.3466 16.7558 21.3333 16.7923L21.3164 16.8382C21.3129 16.8475 21.311 16.8525 21.3103 16.8543L21.3121 16.8501L21.7739 17.0416M12.5535 6.77353C12.5537 6.77347 12.5539 6.77341 12.5541 6.77335L12.4092 6.2948M12.5535 6.77353C12.5533 6.77359 12.5531 6.77365 12.5529 6.77371L12.4092 6.2948M12.5535 6.77353C10.7463 7.32086 9.23391 8.58927 8.35097 10.3061C7.46755 12.0238 7.28695 14.0499 7.85408 15.9393L7.85412 15.9394C8.31674 17.4821 9.25475 18.834 10.5217 19.7884M12.4092 6.2948C10.4694 6.88208 8.85005 8.24241 7.90633 10.0774C6.9626 11.9124 6.77159 14.0722 7.37519 16.083C7.868 17.7264 8.86769 19.1684 10.2209 20.1878M10.5217 19.7884L10.5217 19.7884L10.5217 19.7884L10.2209 20.1878M10.5217 19.7884L10.5217 19.7884L10.5218 19.7884C10.5217 19.7884 10.5217 19.7884 10.5217 19.7884ZM10.2209 20.1878L10.5218 19.7884L10.5218 19.7885L10.5224 19.7889L10.5247 19.7907L10.5336 19.7973L10.5658 19.8215L10.6664 19.8968C10.704 19.9249 10.7423 19.9534 10.7736 19.9764C10.8006 19.9962 10.8156 20.007 10.821 20.0109C10.8229 20.0123 10.8237 20.0128 10.8233 20.0126L10.8261 20.0145L10.8261 20.0145L17.9986 24.8387M10.2209 20.1878C10.2209 20.1878 10.5026 20.3999 10.547 20.4294L17.8032 25.3099L17.9986 24.8387M17.9986 24.8387L18.4219 25.1234L21.7739 17.0416M17.9986 24.8387L21.3101 16.8549L21.7739 17.0416M17.8351 12.9309L17.8349 12.9303C17.6431 12.294 17.2731 11.7256 16.77 11.2973C16.2667 10.8689 15.6517 10.5993 15.0015 10.5258C14.3511 10.4522 13.6968 10.5786 13.1223 10.8895C12.5479 11.2003 12.0815 11.6801 11.7803 12.2659C11.4791 12.8514 11.3563 13.5166 11.4246 14.1772C11.493 14.8378 11.7495 15.4667 12.1627 15.9848C12.5759 16.5031 13.1287 16.8889 13.753 17.0907C14.3776 17.2927 15.045 17.301 15.6699 17.1127L15.6705 17.1125C16.5081 16.8588 17.2038 16.2723 17.6076 15.4871C18.0111 14.7026 18.091 13.7836 17.8351 12.9309Z" stroke="#0065E3"/>
<path d="M16.8772 13.2188C17.2613 14.4932 16.5708 15.7965 15.381 16.1551C14.1912 16.5137 12.8955 15.809 12.5114 14.5347C12.1273 13.2603 12.8178 11.957 14.0075 11.5984C15.1973 11.2397 16.493 11.9444 16.8772 13.2188Z" stroke="#0065E3"/>
</g>
<g clip-path="url(#clip2_109_1777)">
<path d="M52.1553 61.9611L52.1573 61.9622C53.325 63.1886 54.8717 64.0155 56.5601 64.3159C58.627 64.6843 60.7505 64.2461 62.4648 63.0976C64.1791 61.9491 65.3441 60.1841 65.7044 58.1896M52.1553 61.9611L52.1605 61.9562L52.5184 61.6175L52.5184 61.6175L52.5184 61.6174L52.5183 61.6173L52.5178 61.6168L52.5158 61.6146L52.5081 61.6065L52.4804 61.5772L52.4625 61.5582M52.1553 61.9611C52.1553 61.9611 51.913 61.7052 51.8809 61.6683M52.1553 61.9611L52.3901 61.5197L52.3921 61.5208L52.4625 61.5582M52.4625 61.5582L52.4636 61.5588L52.5194 61.6174C53.6127 62.7656 55.0628 63.5416 56.6477 63.8237L56.6478 63.8237C58.5899 64.1698 60.5818 63.7573 62.1865 62.6822C63.7904 61.6077 64.8764 59.9595 65.2123 58.1013M52.4625 61.5582L52.3942 61.4858C52.3621 61.4517 52.3294 61.4169 52.3028 61.3885L52.2695 61.3526C52.2628 61.3453 52.2592 61.3414 52.2579 61.3399L52.2609 61.3434L51.8809 61.6683M65.2123 58.1013C65.2122 58.1015 65.2122 58.1017 65.2122 58.1019L65.7044 58.1896M65.2123 58.1013C65.2123 58.1011 65.2124 58.1009 65.2124 58.1007L65.7044 58.1896M65.2123 58.1013C65.5433 56.2422 65.0978 54.3193 63.9674 52.7543C62.8364 51.1884 61.1121 50.1094 59.1708 49.7589L59.1707 49.7589C57.5858 49.4722 55.9556 49.6959 54.5308 50.3929M65.7044 58.1896C66.0598 56.1942 65.5809 54.1343 64.3727 52.4615C63.1645 50.7888 61.3257 49.6399 59.2596 49.2668C57.5713 48.9615 55.8329 49.1993 54.311 49.9438M54.5308 50.3929L54.5308 50.3929L54.5308 50.3929L54.311 49.9438M54.5308 50.3929L54.5308 50.3929L54.5307 50.3929C54.5307 50.3929 54.5307 50.3929 54.5308 50.3929ZM54.311 49.9438L54.5307 50.3929L54.5306 50.393L54.5299 50.3933L54.5274 50.3945L54.5174 50.3994L54.4812 50.4172L54.3685 50.4727C54.3264 50.4935 54.2837 50.5148 54.249 50.5323C54.2191 50.5473 54.2027 50.5558 54.1967 50.5589C54.1946 50.56 54.1938 50.5604 54.1942 50.5601L54.1913 50.5618L54.1913 50.5618L46.6407 54.7699M54.311 49.9438C54.311 49.9438 53.9943 50.0988 53.9479 50.125L46.3093 54.3822L46.6407 54.7699M46.6407 54.7699L46.1952 55.0182L51.8809 61.6683M46.6407 54.7699L52.2575 61.3395L51.8809 61.6683M57.3302 60.0196L57.3308 60.0197C57.9849 60.1371 58.6593 60.0648 59.269 59.8103C59.879 59.5558 60.398 59.1297 60.7581 58.5834C61.1184 58.0369 61.3022 57.3964 61.2854 56.7434C61.2686 56.0905 61.0522 55.4573 60.6665 54.9234C60.281 54.3896 59.7436 53.9787 59.1237 53.7403C58.5039 53.5019 57.827 53.4456 57.1779 53.5791C56.5286 53.7127 55.9343 54.0307 55.4714 54.4958C55.0084 54.9611 54.6986 55.5522 54.5833 56.1947L54.5832 56.1953C54.4298 57.0569 54.6375 57.9428 55.1545 58.6586C55.671 59.3737 56.4541 59.8614 57.3302 60.0196Z" stroke="#0065E3"/>
<path d="M57.5076 59.0353C56.1975 58.8003 55.3485 57.5942 55.5679 56.3711C55.7873 55.1479 57.0026 54.3122 58.3127 54.5472C59.6228 54.7822 60.4718 55.9882 60.2524 57.2114C60.033 58.4345 58.8177 59.2703 57.5076 59.0353Z" stroke="#0065E3"/>
</g>
<defs>
<clipPath id="clip0_109_1777">
<rect width="32.0215" height="32.0215" fill="white" transform="translate(48.0371 0.0761719) rotate(40.5064)"/>
</clipPath>
<clipPath id="clip1_109_1777">
<rect width="22.239" height="23.037" fill="white" transform="translate(1.34717 8.125) rotate(-16.7736)"/>
</clipPath>
<clipPath id="clip2_109_1777">
<rect width="22.239" height="23.037" fill="white" transform="translate(69.085 47.499) rotate(100.17)"/>
</clipPath>
</defs>
</svg>
