<svg width="32" height="33" viewBox="0 0 32 33" fill="none" xmlns="http://www.w3.org/2000/svg">
<path d="M16 4.07568C22.6 4.07568 28 9.47568 28 16.0757C28 22.6757 22.6 28.0757 16 28.0757C9.4 28.0757 4 22.6757 4 16.0757C4 9.47568 9.4 4.07568 16 4.07568ZM16 2.07568C8.3 2.07568 2 8.37568 2 16.0757C2 23.7757 8.3 30.0757 16 30.0757C23.7 30.0757 30 23.7757 30 16.0757C30 8.37568 23.7 2.07568 16 2.07568Z" fill="#0065E3"/>
<path d="M24 15.0757H17V8.07568H15V15.0757H8V17.0757H15V24.0757H17V17.0757H24V15.0757Z" fill="#0065E3"/>
</svg>
