<svg width="75" height="76" viewBox="0 0 75 76" fill="none" xmlns="http://www.w3.org/2000/svg">
<path d="M36.2061 21.0469V26.9679C37.1371 27.617 37.9931 28.3683 38.7922 29.1881V21.0469C38.3655 21.0947 37.9349 21.127 37.4991 21.127C37.0634 21.127 36.6328 21.0947 36.2061 21.0469Z" fill="#0065E3"/>
<path d="M64.6543 26.2197V38.2286C64.8263 38.6281 64.9853 39.0355 65.125 39.4544C65.8245 39.3057 66.5319 39.2307 67.2405 39.2307V26.2197C66.8137 26.2676 66.3831 26.2999 65.9474 26.2999C65.5116 26.2999 65.081 26.2676 64.6543 26.2197Z" fill="#0065E3"/>
<path d="M7.75879 26.22V36.7289C8.01223 36.7005 8.26438 36.6681 8.523 36.6565C8.96135 35.1733 9.57945 33.782 10.345 32.498V26.2188C9.91823 26.2679 9.48764 26.3002 9.05187 26.3002C8.6161 26.3002 8.18551 26.2679 7.75879 26.22Z" fill="#0065E3"/>
<path d="M37.4995 13.3691C35.1616 13.3691 33.0565 14.6131 31.9121 16.5967C33.4522 17.8109 35.3905 18.5415 37.4995 18.5415C39.6085 18.5415 41.5469 17.8109 43.0869 16.5967C41.9425 14.6131 39.8374 13.3691 37.4995 13.3691Z" fill="#DB2B39"/>
<path d="M33.664 11.6353C32.8429 10.7198 32.327 9.52237 32.327 8.19696C32.327 5.34443 34.6468 3.02464 37.4993 3.02464C40.3519 3.02464 42.6716 5.34443 42.6716 8.19696C42.6716 9.52237 42.1557 10.7198 41.3346 11.6353C42.7673 12.3038 43.9919 13.3551 44.9074 14.6753C45.9393 13.2051 46.5509 11.4193 46.5509 9.49004C46.5509 4.49875 42.4906 0.438477 37.4993 0.438477C32.508 0.438477 28.4478 4.49875 28.4478 9.49004C28.4478 11.4193 29.0594 13.2051 30.0913 14.6753C31.0081 13.3551 32.2326 12.3051 33.664 11.6353Z" fill="#DB2B39"/>
<path d="M37.4992 10.7837C38.9275 10.7837 40.0854 9.62579 40.0854 8.19749C40.0854 6.76919 38.9275 5.61133 37.4992 5.61133C36.0709 5.61133 34.9131 6.76919 34.9131 8.19749C34.9131 9.62579 36.0709 10.7837 37.4992 10.7837Z" fill="#DB2B39"/>
<path d="M9.05149 15.9555C10.4798 15.9555 11.6377 14.7977 11.6377 13.3694C11.6377 11.9411 10.4798 10.7832 9.05149 10.7832C7.6232 10.7832 6.46533 11.9411 6.46533 13.3694C6.46533 14.7977 7.6232 15.9555 9.05149 15.9555Z" fill="#DB2B39"/>
<path d="M9.05176 18.541C6.71387 18.541 4.60873 19.785 3.46436 21.7685C5.00442 22.9827 6.94274 23.7133 9.05176 23.7133C11.1608 23.7133 13.0991 22.9827 14.6392 21.7685C13.4948 19.785 11.3896 18.541 9.05176 18.541Z" fill="#DB2B39"/>
<path d="M5.21629 16.8081C4.39518 15.8926 3.87924 14.6952 3.87924 13.3698C3.87924 10.5173 6.19903 8.19749 9.05157 8.19749C11.9041 8.19749 14.2239 10.5173 14.2239 13.3698C14.2239 14.6952 13.708 15.8926 12.8868 16.8081C14.3196 17.4766 15.5441 18.5279 16.4596 19.8482C17.4915 18.3779 18.1031 16.5922 18.1031 14.6629C18.1031 9.6716 14.0429 5.61133 9.05157 5.61133C4.06028 5.61133 0 9.6716 0 14.6629C0 16.5922 0.611627 18.3779 1.64351 19.8482C2.5603 18.5279 3.78485 17.4779 5.21629 16.8081Z" fill="#DB2B39"/>
<path d="M65.9475 15.9555C67.3758 15.9555 68.5337 14.7977 68.5337 13.3694C68.5337 11.9411 67.3758 10.7832 65.9475 10.7832C64.5192 10.7832 63.3613 11.9411 63.3613 13.3694C63.3613 14.7977 64.5192 15.9555 65.9475 15.9555Z" fill="#DB2B39"/>
<path d="M62.1118 16.8081C61.2907 15.8926 60.7748 14.6952 60.7748 13.3698C60.7748 10.5173 63.0945 8.19749 65.9471 8.19749C68.7996 8.19749 71.1194 10.5173 71.1194 13.3698C71.1194 14.6952 70.6035 15.8926 69.7824 16.8081C71.2151 17.4766 72.4396 18.5279 73.3551 19.8482C74.387 18.3779 74.9986 16.5922 74.9986 14.6629C74.9986 9.6716 70.9384 5.61133 65.9471 5.61133C60.9558 5.61133 56.8955 9.6716 56.8955 14.6629C56.8955 16.5922 57.5071 18.3779 58.539 19.8482C59.4558 18.5279 60.6804 17.4779 62.1118 16.8081Z" fill="#DB2B39"/>
<path d="M65.9468 18.541C63.6089 18.541 61.5038 19.785 60.3594 21.7685C61.8994 22.9827 63.8378 23.7133 65.9468 23.7133C68.0558 23.7133 69.9941 22.9827 71.5342 21.7685C70.3898 19.785 68.2847 18.541 65.9468 18.541Z" fill="#DB2B39"/>
<path d="M43.9001 68.3507L42.6393 68.0352C42.5178 70.7067 41.6954 73.2514 40.229 75.438H50.3357C49.8301 72.0295 47.328 69.208 43.9001 68.3507Z" fill="#0065E3"/>
<path d="M37.4992 74.7801C38.5634 73.4417 39.3108 71.9069 39.7181 70.2646H35.2803C35.6876 71.9069 36.435 73.4417 37.4992 74.7801Z" fill="#0065E3"/>
<path d="M31.1084 68.3429C27.6753 69.1963 25.1654 72.023 24.6611 75.4367H34.7691C33.3028 73.2488 32.4791 70.704 32.3588 68.0312L31.1084 68.3429Z" fill="#0065E3"/>
<path d="M67.2402 41.8178C66.3764 41.8178 65.5114 41.9678 64.667 42.2652L63.3183 42.7397L62.9821 41.351C61.5713 35.5347 56.4107 31.4731 50.4302 31.4731C44.6953 31.4731 41.8428 34.6942 41.7251 34.8312L40.4864 36.264L39.598 34.5933C36.9019 29.4792 31.6378 26.3008 25.8616 26.3008C18.6333 26.3008 12.4278 31.2171 10.7727 38.2579L10.527 39.3014L9.25717 39.2419C9.18863 39.2368 9.12139 39.2316 9.05157 39.2316C4.06027 39.2316 0 43.2919 0 48.2832C0 53.2745 4.06027 57.3347 9.05157 57.3347H24.5685V52.1624C24.5685 45.0324 30.3693 39.2316 37.4994 39.2316C44.6294 39.2316 50.4302 45.0324 50.4302 52.1624V57.3347H67.2402C71.519 57.3347 74.9987 53.855 74.9987 49.5762C74.9987 45.2974 71.519 41.8178 67.2402 41.8178ZM28.162 31.7291C27.412 31.5597 26.6388 31.4731 25.8616 31.4731C20.9958 31.4731 16.8476 34.7808 15.773 39.5174L13.2515 38.9458C14.595 33.0235 19.7803 28.8869 25.8616 28.8869C26.8314 28.8869 27.7974 28.9943 28.7336 29.2076L28.162 31.7291Z" fill="#0065E3"/>
<path d="M38.7923 65.0938H36.2062C35.8958 65.0938 35.5984 65.0446 35.2997 65.002L34.9131 66.5459V67.367C34.9131 67.473 34.926 67.5752 34.9286 67.6812H40.0699C40.0725 67.5752 40.0854 67.4717 40.0854 67.3657V66.5459L39.6988 65.002C39.4001 65.0446 39.1027 65.0938 38.7923 65.0938Z" fill="#0065E3"/>
<path d="M37.4995 50.4961C36.1689 52.0387 34.3366 53.0512 32.3271 53.3564V58.627C32.3271 60.7657 34.0676 62.5062 36.2064 62.5062H38.7926C40.9313 62.5062 42.6718 60.7657 42.6718 58.627V53.3564C40.6623 53.0512 38.8301 52.0387 37.4995 50.4961Z" fill="#0065E3"/>
<path d="M44.5281 65.8415C44.8242 65.9152 45.1139 66.0032 45.3984 66.0989C46.8518 65.517 47.8436 64.0959 47.8436 62.5067V52.162C47.8436 46.4583 43.2027 41.8174 37.4989 41.8174C31.7952 41.8174 27.1543 46.4583 27.1543 52.162V62.5067C27.1543 64.0933 28.1422 65.5118 29.5918 66.0963C29.884 65.998 30.1801 65.9088 30.484 65.8338L32.5542 65.3191L32.8516 64.1282C30.9947 62.9903 29.7405 60.9602 29.7405 58.6274V50.869H31.0335C33.0288 50.869 34.8817 49.8772 35.9886 48.2168L37.4989 45.9514L39.0093 48.2168C40.1161 49.8772 41.9691 50.869 43.9643 50.869H45.2574V58.6274C45.2574 60.9602 44.0031 62.9903 42.1463 64.1269L42.445 65.3191L44.5281 65.8415Z" fill="#0065E3"/>
</svg>
