<svg width="66" height="66" viewBox="0 0 66 66" fill="none" xmlns="http://www.w3.org/2000/svg">
<path d="M42.179 26.1652L41.3691 26.9594C40.907 27.4126 40.1651 27.4054 39.7119 26.9433C39.2588 26.4812 39.266 25.7392 39.728 25.2861L40.5379 24.4918L34.8778 18.7202C34.4246 18.2581 34.4285 17.5097 34.938 17.1106C37.9615 14.7423 41.9834 14.2808 45.3946 15.7106L50.2927 10.9071L49.267 9.86115L48.8487 10.2714C47.4625 11.6309 45.2366 11.6092 43.8771 10.223L42.6463 8.96801C41.2868 7.58174 41.3085 5.35588 42.6947 3.99639L44.7864 1.94508C46.1727 0.585556 48.3986 0.607248 49.758 1.99348L50.9889 3.2485C52.3484 4.63477 52.3267 6.86062 50.9404 8.22012L51.9661 9.26596L52.1755 9.06059C53.5617 7.70109 55.7876 7.72283 57.1471 9.10904L57.7625 9.73658C59.122 11.1228 59.1003 13.3487 57.714 14.7081L57.5048 14.9133L58.3252 15.7499C59.7114 14.3903 61.9373 14.4121 63.2968 15.7983L64.5276 17.0533C65.8871 18.4396 65.8654 20.6654 64.4791 22.0249L62.3875 24.0762C61.0013 25.4357 58.7753 25.414 57.4158 24.0278L56.1851 22.7728C54.8256 21.3865 54.8473 19.1607 56.2335 17.8012L56.6518 17.3909L55.8315 16.5544L50.9834 21.3089C52.4338 24.7847 51.9171 28.8814 49.4498 31.908C49.0408 32.4096 48.2925 32.3989 47.8393 31.9368L42.179 26.1652Z" fill="#DB2B39"/>
<path d="M54.4082 43.7093C54.4082 39.9406 53.7617 36.3255 52.5747 32.967C52.3591 32.3568 52.6789 31.6873 53.2891 31.4716C53.8993 31.2559 54.5688 31.5757 54.7845 32.186C56.059 35.7918 56.752 39.6709 56.752 43.7093C56.752 51.7099 54.0327 59.0788 49.4687 64.937C49.071 65.4479 48.3346 65.5394 47.824 65.1415C47.3135 64.7437 47.222 64.0077 47.6198 63.4968C51.8744 58.0353 54.4082 51.1699 54.4082 43.7093Z" fill="#0065E3"/>
<path d="M35.5754 13.0821C35.3368 13.6838 34.6557 13.9781 34.0541 13.7396C30.3814 12.2833 26.3763 11.4824 22.1813 11.4824C14.89 11.4824 8.16723 13.9025 2.76781 17.9837C2.25161 18.3739 1.51684 18.2717 1.12661 17.7554C0.736374 17.2391 0.838326 16.5042 1.35454 16.114C7.14653 11.7358 14.3625 9.13867 22.1813 9.13867C26.6769 9.13867 30.9748 9.99736 34.9179 11.5608C35.5196 11.7994 35.8139 12.4805 35.5754 13.0821Z" fill="#0065E3"/>
<path fill-rule="evenodd" clip-rule="evenodd" d="M22.1816 65.3884C10.5318 65.3884 1.08766 55.9449 1.08766 44.2949C1.08766 32.6451 10.5318 23.2012 22.1816 23.2012C33.8314 23.2012 43.2754 32.6451 43.2754 44.2949C43.2754 55.9449 33.8314 65.3884 22.1816 65.3884ZM22.4376 63.0429C22.4154 62.958 22.383 62.8736 22.3401 62.7922C21.2748 60.7677 21.2168 59.2261 21.5609 58.0771C21.9124 56.9035 22.7368 55.9636 23.7473 55.2687C24.4754 54.7683 24.6035 53.9117 24.5889 53.4036C24.5736 52.8689 24.3924 52.1437 23.8515 51.6559C23.4251 51.2713 23.2445 50.7884 23.2441 50.406C23.2436 50.0468 23.3859 49.8462 23.5653 49.7479C27.4165 48.0562 28.6524 44.8272 29.0875 42.2171C29.2633 41.1621 29.316 40.1591 29.3553 39.4107L29.3553 39.4094C29.3639 39.2456 29.372 39.0936 29.3804 38.9564C29.3847 38.8869 29.389 38.8229 29.3934 38.7641C30.9396 38.9164 31.6502 39.5325 32.0199 40.1361C32.5087 40.9339 32.5923 42.0152 32.5085 43.0105C32.4246 44.007 33.1363 44.6697 33.7022 44.9294C33.7823 44.9661 33.8837 45.0417 33.9805 45.3004C34.0865 45.5839 34.1495 45.9988 34.159 46.5555C34.1684 47.102 34.1262 47.7061 34.0699 48.3409C34.0564 48.4936 34.0418 48.6501 34.0271 48.808C33.983 49.2808 33.9378 49.7666 33.9157 50.2011C33.8683 51.136 34.5397 51.7131 35.0077 51.9443C35.1516 52.0155 35.3297 52.1795 35.4972 52.554C35.6659 52.9313 35.7851 53.4405 35.8472 54.0476C35.9585 55.1345 35.8694 56.3504 35.7286 57.258C32.37 60.7671 27.6617 62.9732 22.4376 63.0429ZM19.8384 33.4551C21.0939 33.4551 22.305 33.8342 23.1254 34.6272C23.9075 35.3832 24.5007 36.6763 24.2409 38.8846C23.9931 40.9913 23.1081 41.9872 22.0855 42.8499C21.8665 43.0348 21.6471 43.2081 21.4139 43.3923L21.2318 43.5365C20.938 43.7695 20.6252 44.0223 20.3255 44.2987C19.7175 44.8595 19.1298 45.5475 18.7503 46.4964C18.2308 47.7951 17.5324 48.4193 17.1042 48.5869C16.9146 48.6611 16.8332 48.6303 16.8111 48.6205C16.7855 48.6092 16.6656 48.5463 16.5374 48.2651C16.1961 47.2654 15.6985 46.483 14.9662 45.9711C14.2213 45.4504 13.3907 45.3203 12.6242 45.3203C11.9597 45.3203 11.2302 45.4217 10.5394 45.5177L10.2998 45.5509C9.50465 45.6599 8.69312 45.7598 7.82652 45.7598C7.42398 45.7598 7.1984 45.6445 7.04605 45.5093C6.87144 45.3548 6.70211 45.0909 6.57496 44.6737C6.31949 43.8388 6.32359 42.6975 6.46304 41.6582H13.979C15.0771 41.6582 15.9363 40.9793 16.388 40.1888C16.8364 39.4042 16.9796 38.3559 16.5212 37.3857C16.2594 36.6813 16.2859 36.1485 16.4204 35.7371C16.5636 35.2987 16.8643 34.8954 17.2926 34.5384C17.722 34.1806 18.2423 33.9019 18.7411 33.7139C19.2559 33.5199 19.6598 33.4551 19.8384 33.4551Z" fill="#0065E3"/>
</svg>
