<svg width="44" height="61" viewBox="0 0 44 61" fill="none" xmlns="http://www.w3.org/2000/svg">
<path d="M24.3374 2.57617L43.3374 2.57617" stroke="#DB2B39" stroke-width="4"/>
<path d="M22.9873 8.07617L41.9873 8.07617" stroke="#DB2B39" stroke-width="4"/>
<path d="M20.9873 14.0762L37.9873 14.0762" stroke="#DB2B39" stroke-width="4"/>
<mask id="path-4-inside-1_130_1464" fill="white">
<path d="M35.3267 18.8262H24.5646C23.2034 18.8262 22.2398 17.4959 22.6643 16.2025L26.7954 3.61523C27.2642 1.83398 25.9165 0.0761719 24.0767 0.0761719H7.20166C5.79541 0.0761719 4.6001 1.11914 4.4126 2.51367L0.737937 30.0736C0.688691 30.443 0.745715 30.8183 0.887547 31.1628C1.49646 32.6421 1.66779 33.4784 3.28912 33.7968C3.3967 33.8179 3.50676 33.8262 3.6164 33.8262H14.8324C16.1234 33.8262 17.0762 35.0312 16.7785 36.2874L11.9595 56.6191C11.5376 58.4004 12.897 60.0762 14.6899 60.0762C15.6743 60.0762 16.6118 59.5605 17.1274 58.6699L37.7524 23.0449C38.8423 21.1816 37.4946 18.8262 35.3267 18.8262Z"/>
</mask>
<path d="M26.7954 3.61523L30.596 4.86256L30.6333 4.7489L30.6637 4.63321L26.7954 3.61523ZM4.4126 2.51367L0.448268 1.98065L0.447687 1.98502L4.4126 2.51367ZM11.9595 56.6191L8.06731 55.6966L8.06715 55.6973L11.9595 56.6191ZM17.1274 58.6699L13.6657 56.6658L13.6657 56.6658L17.1274 58.6699ZM37.7524 23.0449L34.2997 21.0254L34.2952 21.0331L34.2907 21.0408L37.7524 23.0449ZM16.7785 36.2874L12.8863 35.3649L16.7785 36.2874ZM3.28912 33.7968L2.51841 37.7218L3.28912 33.7968ZM0.737937 30.0736L-3.22697 29.545L0.737937 30.0736ZM0.887547 31.1628L4.58643 29.6402L0.887547 31.1628ZM22.6643 16.2025L18.8638 14.9552L22.6643 16.2025ZM35.3267 14.8262H24.5646V22.8262H35.3267V14.8262ZM26.4649 17.4498L30.596 4.86256L22.9949 2.36791L18.8638 14.9552L26.4649 17.4498ZM30.6637 4.63321C31.7955 0.332557 28.5567 -3.92383 24.0767 -3.92383V4.07617C23.2763 4.07617 22.7329 3.33541 22.9271 2.59726L30.6637 4.63321ZM24.0767 -3.92383H7.20166V4.07617H24.0767V-3.92383ZM7.20166 -3.92383C3.79636 -3.92383 0.903241 -1.40319 0.448271 1.98065L8.37693 3.04669C8.29695 3.64147 7.79447 4.07617 7.20166 4.07617V-3.92383ZM0.447687 1.98502L-3.22697 29.545L4.70285 30.6023L8.37751 3.04233L0.447687 1.98502ZM-2.81134 32.6854C-2.7272 32.8898 -2.51479 33.4316 -2.3751 33.752C-2.20181 34.1496 -1.93067 34.7227 -1.50454 35.2974C-0.459944 36.7064 0.966353 37.4171 2.51841 37.7218L4.05983 29.8718C3.95797 29.8518 4.08777 29.8635 4.31437 29.9942C4.42985 30.0608 4.54938 30.1463 4.66355 30.2497C4.77678 30.3524 4.86204 30.4521 4.9219 30.5329C4.97931 30.6103 5.0074 30.6622 5.00966 30.6664C5.01064 30.6683 4.99497 30.6391 4.95845 30.5553C4.92087 30.4691 4.87705 30.362 4.81218 30.2001C4.75314 30.0527 4.67207 29.8483 4.58643 29.6402L-2.81134 32.6854ZM3.6164 37.8262H14.8324V29.8262H3.6164V37.8262ZM12.8863 35.3649L8.06731 55.6966L15.8516 57.5417L20.6706 37.2099L12.8863 35.3649ZM8.06715 55.6973C7.043 60.0215 10.3468 64.0762 14.6899 64.0762V56.0762C15.4472 56.0762 16.0322 56.7793 15.8518 57.541L8.06715 55.6973ZM14.6899 64.0762C17.0686 64.0762 19.3419 62.8283 20.5891 60.6741L13.6657 56.6658C13.8817 56.2928 14.2801 56.0762 14.6899 56.0762V64.0762ZM20.5891 60.6741L41.2142 25.0491L34.2907 21.0408L13.6657 56.6658L20.5891 60.6741ZM41.2052 25.0645C43.8563 20.5319 40.5808 14.8262 35.3267 14.8262V22.8262C34.4085 22.8262 33.8283 21.8314 34.2997 21.0254L41.2052 25.0645ZM14.8324 37.8262C13.5413 37.8262 12.5885 36.6212 12.8863 35.3649L20.6706 37.2099C21.5639 33.4412 18.7055 29.8262 14.8324 29.8262V37.8262ZM2.51841 37.7218C2.93511 37.8037 3.31118 37.8262 3.6164 37.8262V29.8262C3.70234 29.8262 3.85829 29.8322 4.05983 29.8718L2.51841 37.7218ZM-3.22697 29.545C-3.37692 30.6696 -3.19612 31.7506 -2.81134 32.6854L4.58643 29.6402C4.68755 29.8859 4.7543 30.2164 4.70285 30.6023L-3.22697 29.545ZM24.5646 14.8262C25.9258 14.8262 26.8893 16.1565 26.4649 17.4498L18.8638 14.9552C17.5903 18.8352 20.4809 22.8262 24.5646 22.8262V14.8262Z" fill="#0065E3" mask="url(#path-4-inside-1_130_1464)"/>
</svg>
