<svg width="36" height="37" viewBox="0 0 36 37" fill="none" xmlns="http://www.w3.org/2000/svg">
<path d="M18 0.438477C8.05982 0.438477 0 8.4983 0 18.4385C0 28.3787 8.05982 36.4385 18 36.4385C27.9402 36.4385 36 28.3787 36 18.4385C36 8.4983 27.9402 0.438477 18 0.438477ZM26.6504 14.0068C26.6625 14.1956 26.6625 14.3925 26.6625 14.5854C26.6625 20.4836 22.1705 27.2778 13.9621 27.2778C11.4308 27.2778 9.08437 26.5425 7.10759 25.2769C7.4692 25.317 7.81473 25.3331 8.18438 25.3331C10.2737 25.3331 12.1942 24.626 13.725 23.4287C11.7643 23.3885 10.117 22.1028 9.55446 20.3349C10.2415 20.4354 10.8603 20.4354 11.5674 20.2545C10.5578 20.0494 9.65039 19.5011 8.99926 18.7028C8.34813 17.9044 7.99347 16.9053 7.99554 15.8751V15.8188C8.58616 16.1523 9.28125 16.3572 10.0085 16.3854C9.39713 15.9779 8.89577 15.4259 8.54884 14.7783C8.20191 14.1307 8.02014 13.4075 8.01964 12.6729C8.01964 11.8412 8.23661 11.0818 8.62634 10.4229C9.74693 11.8023 11.1453 12.9306 12.7304 13.7342C14.3156 14.5379 16.0522 14.999 17.8272 15.0876C17.1964 12.0541 19.4625 9.59919 22.1866 9.59919C23.4723 9.59919 24.6295 10.1376 25.4451 11.0054C26.4536 10.8166 27.4179 10.4389 28.2777 9.93267C27.9442 10.9653 27.2451 11.8371 26.317 12.3876C27.217 12.2912 28.0848 12.042 28.8884 11.6925C28.2817 12.5845 27.5223 13.376 26.6504 14.0068Z" fill="#0065E3"/>
</svg>
