<svg width="75" height="66" viewBox="0 0 75 66" fill="none" xmlns="http://www.w3.org/2000/svg">
<path d="M22.4691 29.2333C22.8725 29.4626 23.1221 29.8905 23.1231 30.3545C23.1241 30.8186 22.8764 31.2476 22.474 31.4787C22.0717 31.7098 21.5763 31.7076 21.176 31.4729L20.1131 30.86C19.4982 32.1097 19.0212 33.4226 18.6907 34.7755L19.9023 34.9889C20.5597 35.1079 21.0183 35.7081 20.9602 36.3736C20.9022 37.0392 20.3467 37.551 19.6786 37.5544C19.6028 37.5543 19.5271 37.5478 19.4523 37.535L18.2251 37.3178C17.4115 44.7117 20.8981 51.9197 27.2 55.8718C33.5018 59.8239 41.5088 59.8239 47.8107 55.8718C54.1125 51.9197 57.5991 44.7117 56.7855 37.3178L55.5583 37.535C55.4836 37.5478 55.4079 37.5543 55.332 37.5544C54.664 37.551 54.1085 37.0392 54.0504 36.3736C53.9924 35.7081 54.4509 35.1079 55.1083 34.9889L56.32 34.7755C55.9894 33.4226 55.5124 32.1097 54.8976 30.86L53.8346 31.4729C53.4343 31.7076 52.939 31.7098 52.5366 31.4787C52.1342 31.2476 51.8865 30.8186 51.8876 30.3545C51.8886 29.8905 52.1381 29.4626 52.5415 29.2333L53.6174 28.6126C52.8367 27.4583 51.9346 26.391 50.9264 25.429L50.1389 26.3678C49.6801 26.9155 48.8641 26.9876 48.3163 26.5287C47.7685 26.0699 47.6965 25.2539 48.1553 24.7061L48.9415 23.7699C47.8198 22.9437 46.6124 22.2405 45.3402 21.6725L44.9174 22.8363C44.6637 23.4934 43.9307 23.8265 43.2688 23.5856C42.6069 23.3446 42.2596 22.6183 42.4876 21.9518L42.9105 20.788C41.5681 20.401 40.1875 20.1617 38.7933 20.0742V21.3014C38.7933 22.0155 38.2143 22.5945 37.5001 22.5945C36.786 22.5945 36.207 22.0155 36.207 21.3014V20.0742C34.8162 20.1624 33.4392 20.4018 32.1001 20.788L32.523 21.9518C32.6916 22.3883 32.6111 22.8819 32.3127 23.2423C32.0142 23.6028 31.5443 23.7738 31.084 23.6896C30.6237 23.6054 30.2448 23.279 30.0932 22.8363L29.6704 21.6725C28.3983 22.2405 27.1909 22.9437 26.0691 23.7699L26.8553 24.7061C27.3142 25.2539 27.2421 26.0699 26.6943 26.5287C26.1466 26.9876 25.3305 26.9155 24.8717 26.3678L24.0842 25.429C23.076 26.391 22.1739 27.4583 21.3933 28.6126L22.4691 29.2333ZM36.207 44.7609V26.4738C36.207 25.7596 36.786 25.1807 37.5001 25.1807C38.2143 25.1807 38.7933 25.7596 38.7933 26.4738V44.7609C41.3152 45.412 42.9595 47.8369 42.6313 50.4208C42.3031 53.0047 40.1048 54.9414 37.5001 54.9414C34.8955 54.9414 32.6972 53.0047 32.369 50.4208C32.0408 47.8369 33.6851 45.412 36.207 44.7609Z" fill="#0065E3"/>
<path d="M37.4998 52.3355C38.9281 52.3355 40.086 51.1776 40.086 49.7493C40.086 48.321 38.9281 47.1631 37.4998 47.1631C36.0715 47.1631 34.9136 48.321 34.9136 49.7493C34.9136 51.1776 36.0715 52.3355 37.4998 52.3355Z" fill="#DB2B39"/>
<path d="M0 60.0939C0 62.9505 2.31577 65.2663 5.17241 65.2663H69.8276C72.6842 65.2663 75 62.9505 75 60.0939V12.249H0V60.0939ZM70.7418 54.5426L66.8625 58.4219C66.3575 58.9267 65.539 58.9267 65.034 58.4219L61.1547 54.5426C60.6647 54.0352 60.6717 53.2287 61.1705 52.7299C61.6693 52.2311 62.4758 52.2241 62.9832 52.7141L64.6552 54.3861V44.5766C64.6552 43.8624 65.2341 43.2835 65.9483 43.2835C66.6624 43.2835 67.2414 43.8624 67.2414 44.5766V54.3861L68.9134 52.7141C69.4207 52.2241 70.2273 52.2311 70.7261 52.7299C71.2249 53.2287 71.2319 54.0352 70.7418 54.5426ZM69.8276 23.887H59.4828C58.7686 23.887 58.1897 23.308 58.1897 22.5939C58.1897 21.8797 58.7686 21.3007 59.4828 21.3007H69.8276C70.5417 21.3007 71.1207 21.8797 71.1207 22.5939C71.1207 23.308 70.5417 23.887 69.8276 23.887ZM67.2414 16.1283H69.8276C70.5417 16.1283 71.1207 16.7073 71.1207 17.4214C71.1207 18.1356 70.5417 18.7145 69.8276 18.7145H67.2414C66.5272 18.7145 65.9483 18.1356 65.9483 17.4214C65.9483 16.7073 66.5272 16.1283 67.2414 16.1283ZM51.7241 16.1283H62.069C62.7831 16.1283 63.3621 16.7073 63.3621 17.4214C63.3621 18.1356 62.7831 18.7145 62.069 18.7145H51.7241C51.01 18.7145 50.431 18.1356 50.431 17.4214C50.431 16.7073 51.01 16.1283 51.7241 16.1283ZM29.9819 18.7469C30.022 18.7326 30.0634 18.7391 30.1047 18.7288C34.8808 16.9857 40.1192 16.9857 44.8953 18.7288C44.9366 18.7391 44.978 18.7288 45.0181 18.7469C45.0561 18.767 45.0928 18.7894 45.128 18.8141C47.4686 19.6776 49.645 20.9335 51.5638 22.5279C51.5845 22.5434 51.6091 22.5473 51.6297 22.5641C51.6504 22.5809 51.6724 22.6236 51.6996 22.6507C53.5866 24.2571 55.1904 26.1691 56.444 28.3068C56.4724 28.3456 56.5125 28.3701 56.5384 28.4128C56.5642 28.4555 56.5578 28.4852 56.5746 28.5214C57.815 30.6864 58.6744 33.0483 59.1155 35.5042C59.1233 35.5339 59.1427 35.5572 59.1478 35.5882C59.1504 35.6257 59.1504 35.6633 59.1478 35.7007C60.6804 44.3458 56.9219 53.0737 49.588 57.9006C42.254 62.7275 32.7512 62.7275 25.4172 57.9006C18.0832 53.0737 14.3247 44.3458 15.8573 35.7007C15.8547 35.6633 15.8547 35.6257 15.8573 35.5882C15.8573 35.5572 15.8819 35.5339 15.8897 35.5042C16.3307 33.0483 17.1902 30.6864 18.4306 28.5214C18.4474 28.4852 18.4474 28.4477 18.4668 28.4128C18.4966 28.3752 18.5286 28.3394 18.5625 28.3055C19.8153 26.1679 21.4187 24.2564 23.3056 22.6507C23.3328 22.6236 23.3457 22.5887 23.3754 22.5641C23.4052 22.5395 23.4207 22.5434 23.4414 22.5279C25.3582 20.9341 27.5324 19.6783 29.8707 18.8141C29.9063 18.7894 29.9435 18.7669 29.9819 18.7469ZM12.931 16.1283H23.2759C23.99 16.1283 24.569 16.7073 24.569 17.4214C24.569 18.1356 23.99 18.7145 23.2759 18.7145H12.931C12.2169 18.7145 11.6379 18.1356 11.6379 17.4214C11.6379 16.7073 12.2169 16.1283 12.931 16.1283ZM5.17241 16.1283H7.75862C8.47278 16.1283 9.05172 16.7073 9.05172 17.4214C9.05172 18.1356 8.47278 18.7145 7.75862 18.7145H5.17241C4.45825 18.7145 3.87931 18.1356 3.87931 17.4214C3.87931 16.7073 4.45825 16.1283 5.17241 16.1283ZM5.17241 21.3007H15.5172C16.2314 21.3007 16.8103 21.8797 16.8103 22.5939C16.8103 23.308 16.2314 23.887 15.5172 23.887H5.17241C4.45825 23.887 3.87931 23.308 3.87931 22.5939C3.87931 21.8797 4.45825 21.3007 5.17241 21.3007ZM4.25819 47.5417L8.1375 43.6624C8.64246 43.1576 9.46099 43.1576 9.96595 43.6624L13.8453 47.5417C14.1814 47.8664 14.3162 48.3471 14.1979 48.7992C14.0795 49.2514 13.7265 49.6044 13.2744 49.7228C12.8223 49.8411 12.3415 49.7063 12.0168 49.3701L10.3448 47.6982V57.5076C10.3448 58.2218 9.76589 58.8007 9.05172 58.8007C8.33756 58.8007 7.75862 58.2218 7.75862 57.5076V47.6982L6.08664 49.3701C5.57925 49.8602 4.77274 49.8532 4.27394 49.3544C3.77515 48.8556 3.76814 48.0491 4.25819 47.5417Z" fill="#0065E3"/>
<path d="M75 5.78374C75 2.9271 72.6842 0.611328 69.8276 0.611328H5.17241C2.31577 0.611328 0 2.9271 0 5.78374V9.66305H75V5.78374ZM5.17241 7.07685C4.45825 7.07685 3.87931 6.4979 3.87931 5.78374C3.87931 5.06958 4.45825 4.49064 5.17241 4.49064C5.88658 4.49064 6.46552 5.06958 6.46552 5.78374C6.46552 6.4979 5.88658 7.07685 5.17241 7.07685ZM10.3448 7.07685C9.63067 7.07685 9.05172 6.4979 9.05172 5.78374C9.05172 5.06958 9.63067 4.49064 10.3448 4.49064C11.059 4.49064 11.6379 5.06958 11.6379 5.78374C11.6379 6.4979 11.059 7.07685 10.3448 7.07685ZM15.5172 7.07685C14.8031 7.07685 14.2241 6.4979 14.2241 5.78374C14.2241 5.06958 14.8031 4.49064 15.5172 4.49064C16.2314 4.49064 16.8103 5.06958 16.8103 5.78374C16.8103 6.4979 16.2314 7.07685 15.5172 7.07685ZM41.3793 7.07685H33.6207C32.9065 7.07685 32.3276 6.4979 32.3276 5.78374C32.3276 5.06958 32.9065 4.49064 33.6207 4.49064H41.3793C42.0935 4.49064 42.6724 5.06958 42.6724 5.78374C42.6724 6.4979 42.0935 7.07685 41.3793 7.07685ZM69.8276 7.07685H55.6034C54.8893 7.07685 54.3103 6.4979 54.3103 5.78374C54.3103 5.06958 54.8893 4.49064 55.6034 4.49064H69.8276C70.5417 4.49064 71.1207 5.06958 71.1207 5.78374C71.1207 6.4979 70.5417 7.07685 69.8276 7.07685Z" fill="#DB2B39"/>
</svg>
