<svg width="75" height="75" viewBox="0 0 75 75" fill="none" xmlns="http://www.w3.org/2000/svg">
<path d="M23.4346 22.5013C22.929 22.0015 22.2457 21.7231 21.5349 21.7271C20.824 21.7311 20.1439 22.0173 19.644 22.5227C15.6339 26.6009 13.3867 32.0914 13.3867 37.8108C13.3867 43.5303 15.6339 49.0208 19.644 53.099C19.8861 53.3695 20.1806 53.5881 20.5097 53.7414C20.8388 53.8947 21.1956 53.9796 21.5584 53.9909C21.9213 54.0022 22.2827 53.9396 22.6206 53.8071C22.9586 53.6745 23.2661 53.4747 23.5246 53.2197C23.783 52.9647 23.9869 52.6599 24.124 52.3238C24.2611 51.9876 24.3285 51.6271 24.3221 51.2641C24.3157 50.9011 24.2356 50.5432 24.0867 50.2121C23.9379 49.881 23.7233 49.5836 23.456 49.3379C20.4348 46.2651 18.7417 42.1282 18.7417 37.8189C18.7417 33.5095 20.4348 29.3727 23.456 26.2998C23.7047 26.0494 23.9014 25.7523 24.0349 25.4256C24.1685 25.0989 24.2362 24.749 24.2342 24.3961C24.2322 24.0432 24.1606 23.6941 24.0233 23.3689C23.8861 23.0438 23.686 22.7489 23.4346 22.5013V22.5013Z" fill="#0065E3"/>
<path d="M51.5658 53.1203C52.0713 53.62 52.7547 53.8985 53.4655 53.8945C54.1763 53.8904 54.8565 53.6043 55.3563 53.0988C59.3664 49.0207 61.6136 43.5302 61.6136 37.8107C61.6136 32.0912 59.3664 26.6008 55.3563 22.5226C54.8496 22.0567 54.183 21.8037 53.4948 21.8158C52.8066 21.828 52.1494 22.1044 51.6594 22.5879C51.1694 23.0713 50.8841 23.7247 50.8627 24.4128C50.8413 25.1008 51.0854 25.7707 51.5444 26.2836C54.5656 29.3565 56.2587 33.4933 56.2587 37.8027C56.2587 42.112 54.5656 46.2488 51.5444 49.3217C51.2957 49.5722 51.099 49.8693 50.9654 50.196C50.8319 50.5227 50.7642 50.8725 50.7662 51.2255C50.7681 51.5784 50.8398 51.9274 50.977 52.2526C51.1143 52.5778 51.3143 52.8726 51.5658 53.1203V53.1203Z" fill="#0065E3"/>
<path d="M11.4059 61.3479C11.9357 61.3478 12.4536 61.1907 12.8942 60.8964C13.3347 60.6022 13.6782 60.184 13.8813 59.6947C14.0844 59.2054 14.1379 58.6668 14.0351 58.1471C13.9324 57.6274 13.6779 57.1498 13.3039 56.7746C8.21345 51.6578 5.35589 44.7339 5.35589 37.5163C5.35589 30.2987 8.21345 23.3748 13.3039 18.258C13.5595 18.0104 13.7633 17.7143 13.9033 17.387C14.0433 17.0598 14.1168 16.7079 14.1193 16.352C14.1219 15.9961 14.0536 15.6432 13.9183 15.3139C13.7831 14.9847 13.5836 14.6857 13.3316 14.4343C13.0795 14.183 12.7799 13.9844 12.4503 13.8501C12.1207 13.7157 11.7676 13.6484 11.4117 13.652C11.0558 13.6556 10.7041 13.73 10.3773 13.8709C10.0504 14.0119 9.7549 14.2165 9.50797 14.4729C3.41833 20.5959 0 28.8806 0 37.5163C0 46.152 3.41833 54.4367 9.50797 60.5597C9.75613 60.8106 10.0518 61.0094 10.3776 61.1448C10.7035 61.2801 11.0531 61.3491 11.4059 61.3479Z" fill="#0065E3"/>
<path d="M63.5942 61.3475C63.947 61.3486 64.2965 61.2795 64.6224 61.1442C64.9482 61.0089 65.2439 60.8101 65.4922 60.5594C71.5818 54.4363 75.0001 46.1517 75.0001 37.516C75.0001 28.8802 71.5818 20.5956 65.4922 14.4725C64.9873 13.9835 64.3105 13.7123 63.6076 13.7174C62.9047 13.7224 62.2319 14.0034 61.7341 14.4998C61.2364 14.9961 60.9535 15.6681 60.9464 16.371C60.9393 17.0739 61.2086 17.7514 61.6963 18.2577C66.7867 23.3744 69.6442 30.2984 69.6442 37.516C69.6442 44.7335 66.7867 51.6575 61.6963 56.7742C61.3222 57.1494 61.0678 57.6271 60.965 58.1468C60.8622 58.6665 60.9157 59.205 61.1188 59.6944C61.3219 60.1837 61.6654 60.6019 62.106 60.8961C62.5465 61.1903 63.0644 61.3474 63.5942 61.3475V61.3475Z" fill="#0065E3"/>
<circle cx="37.7145" cy="37.6486" r="7.506" fill="#DB2B39"/>
</svg>
