<svg width="36" height="37" viewBox="0 0 36 37" fill="none" xmlns="http://www.w3.org/2000/svg">
<path d="M18 36.4385C8.0586 36.4385 0 28.3799 0 18.4385C0 8.49708 8.0586 0.438477 18 0.438477C27.9414 0.438477 36 8.49708 36 18.4385C35.9892 28.3745 27.936 36.4277 18 36.4385ZM10.3086 23.4551C10.0764 23.4551 9.846 23.4839 9.6192 23.5379L9.3492 23.6117L8.28 25.4423C8.0847 25.768 8.02199 26.1564 8.10482 26.5271C8.18765 26.8977 8.4097 27.2224 8.72509 27.4341C9.04048 27.6457 9.42512 27.7282 9.79954 27.6643C10.174 27.6005 10.5096 27.3953 10.737 27.0911L10.8486 26.9237L12.2706 24.4559C12.0401 24.1476 11.7415 23.8969 11.398 23.7233C11.0545 23.5497 10.6755 23.4579 10.2906 23.4551H10.3086ZM20.1798 12.4265C19.6198 12.9526 19.2485 13.6484 19.1232 14.4065C18.9225 15.4518 19.1148 16.5344 19.6632 17.4467L25.1352 26.9255C25.3256 27.2459 25.6293 27.4832 25.9863 27.5905C26.3432 27.6979 26.7274 27.6674 27.063 27.5051C27.3976 27.3401 27.6576 27.0549 27.7911 26.7065C27.9245 26.3581 27.9217 25.9722 27.783 25.6259L27.6948 25.4459L26.2548 22.9421H28.3968C28.7719 22.9389 29.1319 22.7936 29.404 22.5354C29.6762 22.2772 29.8402 21.9254 29.863 21.5509C29.8859 21.1765 29.7658 20.8073 29.5271 20.518C29.2884 20.2286 28.9488 20.0406 28.5768 19.9919L28.3968 19.9811H24.5448L20.5956 13.1411L20.1834 12.4211L20.1798 12.4265ZM7.668 19.9685C7.47457 19.9689 7.28314 20.0076 7.10466 20.0821C6.92619 20.1567 6.76417 20.2657 6.6279 20.403C6.49163 20.5403 6.38378 20.7031 6.31053 20.8821C6.23727 21.0611 6.20005 21.2529 6.201 21.4463C6.201 22.1915 6.7554 22.8215 7.4952 22.9169L7.6752 22.9259H21.1392C21.2882 22.6267 21.3632 22.2961 21.3579 21.9618C21.3525 21.6276 21.2671 21.2996 21.1086 21.0053C20.9739 20.7296 20.773 20.4914 20.524 20.3121C20.2749 20.1328 19.9854 20.0178 19.6812 19.9775L19.4634 19.9667H14.8716L21.222 8.97048C21.4176 8.6296 21.4706 8.22527 21.3696 7.84548C21.2977 7.57895 21.1529 7.33778 20.9514 7.14909C20.7499 6.96041 20.4997 6.8317 20.229 6.77746C19.9584 6.72321 19.6779 6.74558 19.4193 6.84204C19.1606 6.93851 18.934 7.10524 18.765 7.32348L18.6534 7.48908L18 8.63028L17.3538 7.48908C17.1633 7.16821 16.8593 6.93057 16.502 6.82322C16.1446 6.71588 15.7599 6.74666 15.4242 6.90948C15.0898 7.07516 14.83 7.3607 14.6966 7.70926C14.5632 8.05782 14.5659 8.44383 14.7042 8.79048L14.7924 8.97048L16.2864 11.5985L11.4534 19.9685H7.668Z" fill="#0065E3"/>
</svg>
