<svg width="1463" height="541" viewBox="0 0 1463 541" fill="none" xmlns="http://www.w3.org/2000/svg">
<path d="M1463 0H0V541H1463V0Z" fill="#0065E3"/>
<path d="M0 428.852L437.5 359.71L835.536 246L1168 305.979L1463 265.993V541H1253.3H1045.23H835.536H627.464H417.768H209.697H0V428.852Z" fill="#7BB0F1"/>
<path d="M0 429.646L73 397.562L217.5 362.25H417.768L627.464 317.562L835.536 281L1045.23 341.938L1253.3 351.417L1463 307.146V541H1253.3H1045.23H835.536H627.464H417.768H209.697H0V429.646Z" fill="#69A4F0"/>
<path d="M0.195222 441L198.669 390.503L387.144 379.656L627.576 390.503L835.619 325.423L1045.29 390.503L1253.33 379.656L1463 320V541H1253.33H1045.29H835.619H627.576H417.907H209.864H0.195222V441Z" fill="#458CED"/>
<path d="M0 456.967L209.697 429.86L417.768 456.967L627.464 414.95L835.536 425.793L1045.23 393.264L1253.3 377L1463 429.86V541H1253.3H1045.23H835.536H627.464H417.768H209.697H0V456.967Z" fill="#327FEA"/>
<path d="M0 502.92L209.697 487.96L417.768 455.32L627.464 439L835.536 497.48L1045.23 471.64L1253.3 452.6L1463 500.2V541H1253.3H1045.23H835.536H627.464H417.768H209.697H0V502.92Z" fill="#1E72E7"/>
</svg>
