<svg width="900" height="382" viewBox="0 0 900 382" fill="none" xmlns="http://www.w3.org/2000/svg">
<path d="M900 382V0H450H0V382H900Z" fill="white"/>
<path d="M0 206.219L129 235.538L257 199.32L386 238.126L514 201.907L643 190.696L771 222.603L900 170V383H771H643H514H386H257H129H0V206.219Z" fill="#F5F6F7"/>
<path d="M0 207L129 230.294L257 263.078L386 233.745L514 224.255L643 260.49L771 276.02L900 220.804V383H771H643H514H386H257H129H0V207Z" fill="#EBEBED"/>
<path d="M0 286.117L129 297.362L257 242L386 252.38L514 300.822L643 242L771 275.736L900 267.086V383H771H643H514H386H257H129H0V286.117Z" fill="#E1E1E2"/>
<path d="M0 281.717L129 310.9L257 298.025L386 286.867L514 312.617L643 292.017L771 280L900 298.883V383H771H643H514H386H257H129H0V281.717Z" fill="#D7D7D7"/>
<path d="M0 347L129 353.857L257 330.714L386 329L514 356.429L643 323L771 353L900 347.857V383H771H643H514H386H257H129H0V347Z" fill="#CDCDCD"/>
</svg>
