<svg width="125" height="147" viewBox="0 0 125 147" fill="none" xmlns="http://www.w3.org/2000/svg">
<path d="M93 54.3463L32 16.9744L93 54.3463ZM123.5 101.871V44.2653C123.498 41.7398 122.87 39.2594 121.68 37.0729C120.491 34.8864 118.781 33.0707 116.722 31.808L69.2778 3.005C67.2171 1.741 64.8795 1.07556 62.5 1.07556C60.1205 1.07556 57.7829 1.741 55.7222 3.005L8.27778 31.808C6.21911 33.0707 4.5092 34.8864 3.31957 37.0729C2.12995 39.2594 1.50244 41.7398 1.5 44.2653V101.871C1.50244 104.397 2.12995 106.877 3.31957 109.064C4.5092 111.25 6.21911 113.066 8.27778 114.329L55.7222 143.132C57.7829 144.396 60.1205 145.061 62.5 145.061C64.8795 145.061 67.2171 144.396 69.2778 143.132L116.722 114.329C118.781 113.066 120.491 111.25 121.68 109.064C122.87 106.877 123.498 104.397 123.5 101.871Z" fill="#0065E3"/>
<path d="M93 54.3463L32 16.9744M123.5 101.871V44.2653C123.498 41.7398 122.87 39.2594 121.68 37.0729C120.491 34.8864 118.781 33.0707 116.722 31.808L69.2778 3.005C67.2171 1.741 64.8795 1.07556 62.5 1.07556C60.1205 1.07556 57.7829 1.741 55.7222 3.005L8.27778 31.808C6.21911 33.0707 4.5092 34.8864 3.31957 37.0729C2.12995 39.2594 1.50244 41.7398 1.5 44.2653V101.871C1.50244 104.397 2.12995 106.877 3.31957 109.064C4.5092 111.25 6.21911 113.066 8.27778 114.329L55.7222 143.132C57.7829 144.396 60.1205 145.061 62.5 145.061C64.8795 145.061 67.2171 144.396 69.2778 143.132L116.722 114.329C118.781 113.066 120.491 111.25 121.68 109.064C122.87 106.877 123.498 104.397 123.5 101.871Z" stroke="white" stroke-width="2" stroke-linecap="round" stroke-linejoin="round"/>
<path d="M3.46533 37.0643L62.4998 73.0681M62.4998 73.0681L121.534 37.0643M62.4998 73.0681V145.076" stroke="#F5F5F5" stroke-width="2" stroke-linecap="round" stroke-linejoin="round"/>
</svg>
