<svg width="25" height="25" viewBox="0 0 25 25" fill="none" xmlns="http://www.w3.org/2000/svg">
<path fill-rule="evenodd" clip-rule="evenodd" d="M0.636719 12.5378C0.636719 15.8113 1.901 18.9508 4.15144 21.2655C6.40187 23.5803 9.45412 24.8807 12.6367 24.8807C15.8193 24.8807 18.8716 23.5803 21.122 21.2655C23.3724 18.9508 24.6367 15.8113 24.6367 12.5378C24.6367 9.26427 23.3724 6.12482 21.122 3.81009C18.8716 1.49535 15.8193 0.194946 12.6367 0.194946C9.45412 0.194946 6.40187 1.49535 4.15144 3.81009C1.901 6.12482 0.636719 9.26427 0.636719 12.5378ZM22.5796 12.5378C22.5796 15.2502 21.532 17.8514 19.6674 19.7693C17.8027 21.6873 15.2737 22.7647 12.6367 22.7647C9.99971 22.7647 7.47071 21.6873 5.60606 19.7693C3.74141 17.8514 2.69386 15.2502 2.69386 12.5378C2.69386 9.82545 3.74141 7.22419 5.60606 5.30627C7.47071 3.38834 9.99971 2.31086 12.6367 2.31086C15.2737 2.31086 17.8027 3.38834 19.6674 5.30627C21.532 7.22419 22.5796 9.82545 22.5796 12.5378Z" fill="#DB2B39"/>
<path fill-rule="evenodd" clip-rule="evenodd" d="M7.49365 12.5378C7.49365 18.9166 9.53845 24.1754 12.6365 24.1754C15.7346 24.1754 17.7794 18.9166 17.7794 12.5378C17.7794 6.15903 15.7346 0.900269 12.6365 0.900269C9.53845 0.900269 7.49365 6.15903 7.49365 12.5378ZM15.7222 12.5378C15.7222 17.8445 14.0834 22.0595 12.6365 22.0595C11.1897 22.0595 9.5508 17.8445 9.5508 12.5378C9.5508 7.2311 11.1897 3.01619 12.6365 3.01619C14.0834 3.01619 15.7222 7.2311 15.7222 12.5378Z" fill="#DB2B39"/>
<path d="M3.86215 6.14349L5.24181 4.57489C5.37895 4.70185 5.52844 4.8288 5.68752 4.95152C7.43061 6.29443 10.2132 7.12387 13.251 7.12387C15.8443 7.12387 18.2594 6.52154 20.0135 5.49038C20.4359 5.24211 20.8116 4.97268 21.1367 4.68633L22.4724 6.29584C22.0262 6.68517 21.5449 7.02997 21.0352 7.32558C18.9561 8.55 16.1886 9.23837 13.251 9.23837C9.79221 9.23837 6.57895 8.28198 4.45324 6.64426C4.24884 6.48676 4.0516 6.31966 3.86215 6.14349ZM3.86215 18.9547L5.24181 20.5233C5.37895 20.3949 5.52844 20.2694 5.68752 20.1466C7.43061 18.8037 10.2132 17.9743 13.251 17.9743C15.8443 17.9743 18.2594 18.5766 20.0135 19.6078C20.4359 19.8561 20.8116 20.1255 21.1367 20.4118L22.4724 18.8023C22.0256 18.4137 21.5444 18.069 21.0352 17.7726C18.9561 16.5482 16.1886 15.8598 13.251 15.8598C9.79221 15.8598 6.57895 16.8162 4.45324 18.4539C4.24883 18.6114 4.05159 18.7785 3.86215 18.9547ZM1.32227 13.5958V11.4798H23.9508V13.5958H1.32227Z" fill="#DB2B39"/>
</svg>
