<svg width="33" height="37" viewBox="0 0 33 37" fill="none" xmlns="http://www.w3.org/2000/svg">
<path d="M17.9219 17.6559L23.8405 11.7373L4.72367 0.992976C3.45668 0.308445 2.26976 0.212371 1.22895 0.960952L17.9219 17.6559ZM24.8493 24.5853L31.0021 21.1246C32.203 20.4521 32.8615 19.4993 32.8615 18.4425C32.8615 17.3877 32.203 16.433 31.0041 15.7604L25.4337 12.632L19.1629 18.9009L24.8493 24.5853ZM0.200155 2.41608C0.0720557 2.81039 0 3.25073 0 3.7331V33.1659C0 33.9285 0.168131 34.585 0.472367 35.1074L16.6789 18.8989L0.200155 2.41608ZM17.9219 20.1398L1.8054 36.2583C2.11364 36.3764 2.4459 36.4385 2.79617 36.4385C3.42065 36.4385 4.07116 36.2543 4.73367 35.886L23.258 25.484L17.9219 20.1398Z" fill="#0065E3"/>
</svg>
