<svg width="32" height="33" viewBox="0 0 32 33" fill="none" xmlns="http://www.w3.org/2000/svg">
<path d="M16 2.28552C13.0837 2.28896 10.2878 3.44899 8.22564 5.51115C6.16348 7.5733 5.00345 10.3692 5.00001 13.2855C4.99652 15.6687 5.77499 17.9873 7.21601 19.8855C7.21601 19.8855 7.51601 20.2805 7.56501 20.3375L16 30.2855L24.439 20.3325C24.483 20.2795 24.784 19.8855 24.784 19.8855L24.785 19.8825C26.2253 17.9851 27.0034 15.6677 27 13.2855C26.9966 10.3692 25.8365 7.5733 23.7744 5.51115C21.7122 3.44899 18.9163 2.28896 16 2.28552ZM16 17.2855C15.2089 17.2855 14.4355 17.0509 13.7777 16.6114C13.1199 16.1719 12.6072 15.5472 12.3045 14.8163C12.0017 14.0854 11.9225 13.2811 12.0769 12.5052C12.2312 11.7292 12.6122 11.0165 13.1716 10.4571C13.731 9.89769 14.4437 9.51672 15.2197 9.36238C15.9956 9.20804 16.7998 9.28725 17.5307 9.59C18.2616 9.89275 18.8864 10.4054 19.3259 11.0632C19.7654 11.721 20 12.4944 20 13.2855C19.9987 14.346 19.5768 15.3626 18.827 16.1125C18.0771 16.8623 17.0605 17.2842 16 17.2855Z" fill="#DB2B39"/>
</svg>
