<svg width="263" height="28" viewBox="0 0 263 28" fill="none" xmlns="http://www.w3.org/2000/svg">
<path fill-rule="evenodd" clip-rule="evenodd" d="M5.63672 13.5378C5.63672 16.8113 6.901 19.9508 9.15144 22.2655C11.4019 24.5803 14.4541 25.8807 17.6367 25.8807C20.8193 25.8807 23.8716 24.5803 26.122 22.2655C28.3724 19.9508 29.6367 16.8113 29.6367 13.5378C29.6367 10.2643 28.3724 7.12482 26.122 4.81009C23.8716 2.49535 20.8193 1.19495 17.6367 1.19495C14.4541 1.19495 11.4019 2.49535 9.15144 4.81009C6.901 7.12482 5.63672 10.2643 5.63672 13.5378V13.5378ZM27.5796 13.5378C27.5796 16.2502 26.532 18.8514 24.6674 20.7693C22.8027 22.6873 20.2737 23.7647 17.6367 23.7647C14.9997 23.7647 12.4707 22.6873 10.6061 20.7693C8.74141 18.8514 7.69386 16.2502 7.69386 13.5378C7.69386 10.8255 8.74141 8.22419 10.6061 6.30627C12.4707 4.38834 14.9997 3.31086 17.6367 3.31086C20.2737 3.31086 22.8027 4.38834 24.6674 6.30627C26.532 8.22419 27.5796 10.8255 27.5796 13.5378V13.5378Z" fill="#DB2B39"/>
<path fill-rule="evenodd" clip-rule="evenodd" d="M12.4937 13.5378C12.4937 19.9166 14.5385 25.1754 17.6365 25.1754C20.7346 25.1754 22.7794 19.9166 22.7794 13.5378C22.7794 7.15903 20.7346 1.90027 17.6365 1.90027C14.5385 1.90027 12.4937 7.15903 12.4937 13.5378ZM20.7222 13.5378C20.7222 18.8445 19.0834 23.0595 17.6365 23.0595C16.1897 23.0595 14.5508 18.8445 14.5508 13.5378C14.5508 8.2311 16.1897 4.01619 17.6365 4.01619C19.0834 4.01619 20.7222 8.2311 20.7222 13.5378Z" fill="#DB2B39"/>
<path d="M8.86215 7.14349L10.2418 5.57489C10.379 5.70185 10.5284 5.8288 10.6875 5.95152C12.4306 7.29443 15.2132 8.12387 18.251 8.12387C20.8443 8.12387 23.2594 7.52154 25.0135 6.49038C25.4359 6.24211 25.8116 5.97268 26.1367 5.68633L27.4724 7.29584C27.0262 7.68517 26.5449 8.02997 26.0352 8.32558C23.9561 9.55 21.1886 10.2384 18.251 10.2384C14.7922 10.2384 11.579 9.28198 9.45324 7.64426C9.24884 7.48676 9.0516 7.31966 8.86215 7.14349V7.14349ZM8.86215 19.9547L10.2418 21.5233C10.379 21.3949 10.5284 21.2694 10.6875 21.1466C12.4306 19.8037 15.2132 18.9743 18.251 18.9743C20.8443 18.9743 23.2594 19.5766 25.0135 20.6078C25.4359 20.8561 25.8116 21.1255 26.1367 21.4118L27.4724 19.8023C27.0256 19.4137 26.5444 19.069 26.0352 18.7726C23.9561 17.5482 21.1886 16.8598 18.251 16.8598C14.7922 16.8598 11.579 17.8162 9.45324 19.4539C9.24883 19.6114 9.05159 19.7785 8.86215 19.9547V19.9547ZM6.32227 14.5958V12.4798H28.9508V14.5958H6.32227Z" fill="#DB2B39"/>
<path d="M37.6287 22.0378V5.23778H45.8367C47.9487 5.23778 49.5327 5.63778 50.5887 6.43778C51.6607 7.23778 52.1967 8.29378 52.1967 9.60578C52.1967 10.4858 51.9807 11.2538 51.5487 11.9098C51.1167 12.5498 50.5247 13.0458 49.7727 13.3978C49.0207 13.7498 48.1567 13.9258 47.1807 13.9258L47.6367 12.9418C48.6927 12.9418 49.6287 13.1178 50.4447 13.4698C51.2607 13.8058 51.8927 14.3098 52.3407 14.9818C52.8047 15.6538 53.0367 16.4778 53.0367 17.4538C53.0367 18.8938 52.4687 20.0218 51.3327 20.8378C50.1967 21.6378 48.5247 22.0378 46.3167 22.0378H37.6287ZM41.4927 19.1098H46.0287C47.0367 19.1098 47.7967 18.9498 48.3087 18.6298C48.8367 18.2938 49.1007 17.7658 49.1007 17.0458C49.1007 16.3418 48.8367 15.8218 48.3087 15.4858C47.7967 15.1338 47.0367 14.9578 46.0287 14.9578H41.2047V12.1258H45.3567C46.3007 12.1258 47.0207 11.9658 47.5167 11.6458C48.0287 11.3098 48.2847 10.8058 48.2847 10.1338C48.2847 9.47778 48.0287 8.98978 47.5167 8.66978C47.0207 8.33378 46.3007 8.16578 45.3567 8.16578H41.4927V19.1098ZM61.1643 22.2298C60.0923 22.2298 59.1323 22.0218 58.2843 21.6058C57.4523 21.1898 56.8043 20.5578 56.3403 19.7098C55.8763 18.8458 55.6443 17.7498 55.6443 16.4218V9.12578H59.3883V15.8698C59.3883 16.9418 59.6123 17.7338 60.0603 18.2458C60.5243 18.7418 61.1723 18.9898 62.0043 18.9898C62.5803 18.9898 63.0923 18.8698 63.5403 18.6298C63.9883 18.3738 64.3403 17.9898 64.5963 17.4778C64.8523 16.9498 64.9803 16.2938 64.9803 15.5098V9.12578H68.7243V22.0378H65.1723V18.4858L65.8203 19.5178C65.3883 20.4138 64.7483 21.0938 63.9003 21.5578C63.0683 22.0058 62.1563 22.2298 61.1643 22.2298ZM73.8248 26.8858C73.1528 26.8858 72.4888 26.7818 71.8328 26.5738C71.1768 26.3658 70.6408 26.0778 70.2248 25.7098L71.5928 23.0458C71.8808 23.3018 72.2088 23.5018 72.5768 23.6458C72.9608 23.7898 73.3368 23.8618 73.7048 23.8618C74.2328 23.8618 74.6488 23.7338 74.9528 23.4778C75.2728 23.2378 75.5608 22.8298 75.8168 22.2538L76.4888 20.6698L76.7768 20.2618L81.4088 9.12578H85.0088L79.1768 22.8298C78.7608 23.8698 78.2808 24.6858 77.7368 25.2778C77.2088 25.8698 76.6168 26.2858 75.9608 26.5258C75.3208 26.7658 74.6088 26.8858 73.8248 26.8858ZM76.0328 22.5418L70.2728 9.12578H74.1368L78.6008 19.9258L76.0328 22.5418ZM86.8006 22.0378V5.23778H90.6886V22.0378H86.8006ZM102.26 8.93378C103.284 8.93378 104.196 9.14178 104.996 9.55778C105.812 9.95778 106.452 10.5818 106.916 11.4298C107.38 12.2618 107.612 13.3338 107.612 14.6458V22.0378H103.868V15.2218C103.868 14.1818 103.636 13.4138 103.172 12.9178C102.724 12.4218 102.084 12.1738 101.252 12.1738C100.66 12.1738 100.124 12.3018 99.6436 12.5578C99.1796 12.7978 98.8116 13.1738 98.5396 13.6858C98.2836 14.1978 98.1556 14.8538 98.1556 15.6538V22.0378H94.4116V9.12578H97.9876V12.7018L97.3156 11.6218C97.7796 10.7578 98.4436 10.0938 99.3076 9.62978C100.172 9.16578 101.156 8.93378 102.26 8.93378ZM116.285 22.2298C114.765 22.2298 113.581 21.8458 112.733 21.0778C111.885 20.2938 111.461 19.1338 111.461 17.5978V6.26978H115.205V17.5498C115.205 18.0938 115.349 18.5178 115.637 18.8218C115.925 19.1098 116.317 19.2538 116.813 19.2538C117.405 19.2538 117.909 19.0938 118.325 18.7738L119.333 21.4138C118.949 21.6858 118.485 21.8938 117.941 22.0378C117.413 22.1658 116.861 22.2298 116.285 22.2298ZM109.469 12.2938V9.41378H118.421V12.2938H109.469ZM127.445 22.2298C125.973 22.2298 124.677 21.9418 123.557 21.3658C122.453 20.7898 121.597 20.0058 120.989 19.0138C120.381 18.0058 120.077 16.8618 120.077 15.5818C120.077 14.2858 120.373 13.1418 120.965 12.1498C121.573 11.1418 122.397 10.3578 123.437 9.79778C124.477 9.22178 125.653 8.93378 126.965 8.93378C128.229 8.93378 129.365 9.20578 130.373 9.74978C131.397 10.2778 132.205 11.0458 132.797 12.0538C133.389 13.0458 133.685 14.2378 133.685 15.6298C133.685 15.7738 133.677 15.9418 133.661 16.1338C133.645 16.3098 133.629 16.4778 133.613 16.6378H123.125V14.4538H131.645L130.205 15.1018C130.205 14.4298 130.069 13.8458 129.797 13.3498C129.525 12.8538 129.149 12.4698 128.669 12.1978C128.189 11.9098 127.629 11.7658 126.989 11.7658C126.349 11.7658 125.781 11.9098 125.285 12.1978C124.805 12.4698 124.429 12.8618 124.157 13.3738C123.885 13.8698 123.749 14.4618 123.749 15.1498V15.7258C123.749 16.4298 123.901 17.0538 124.205 17.5978C124.525 18.1258 124.965 18.5338 125.525 18.8218C126.101 19.0938 126.773 19.2298 127.541 19.2298C128.229 19.2298 128.829 19.1258 129.341 18.9178C129.869 18.7098 130.349 18.3978 130.781 17.9818L132.773 20.1418C132.181 20.8138 131.437 21.3338 130.541 21.7018C129.645 22.0538 128.613 22.2298 127.445 22.2298ZM136.177 22.0378V9.12578H139.753V12.7738L139.249 11.7178C139.633 10.8058 140.249 10.1178 141.097 9.65378C141.945 9.17378 142.977 8.93378 144.193 8.93378V12.3898C144.033 12.3738 143.889 12.3658 143.761 12.3658C143.633 12.3498 143.497 12.3418 143.353 12.3418C142.329 12.3418 141.497 12.6378 140.857 13.2298C140.233 13.8058 139.921 14.7098 139.921 15.9418V22.0378H136.177ZM154.291 8.93378C155.315 8.93378 156.227 9.14178 157.027 9.55778C157.843 9.95778 158.483 10.5818 158.947 11.4298C159.411 12.2618 159.643 13.3338 159.643 14.6458V22.0378H155.899V15.2218C155.899 14.1818 155.667 13.4138 155.203 12.9178C154.755 12.4218 154.115 12.1738 153.283 12.1738C152.691 12.1738 152.155 12.3018 151.675 12.5578C151.211 12.7978 150.843 13.1738 150.571 13.6858C150.315 14.1978 150.187 14.8538 150.187 15.6538V22.0378H146.443V9.12578H150.019V12.7018L149.347 11.6218C149.811 10.7578 150.475 10.0938 151.339 9.62978C152.203 9.16578 153.187 8.93378 154.291 8.93378ZM169.538 22.2298C168.066 22.2298 166.77 21.9418 165.65 21.3658C164.546 20.7898 163.69 20.0058 163.082 19.0138C162.474 18.0058 162.17 16.8618 162.17 15.5818C162.17 14.2858 162.466 13.1418 163.058 12.1498C163.666 11.1418 164.49 10.3578 165.53 9.79778C166.57 9.22178 167.746 8.93378 169.058 8.93378C170.322 8.93378 171.458 9.20578 172.466 9.74978C173.49 10.2778 174.298 11.0458 174.89 12.0538C175.482 13.0458 175.778 14.2378 175.778 15.6298C175.778 15.7738 175.77 15.9418 175.754 16.1338C175.738 16.3098 175.722 16.4778 175.706 16.6378H165.218V14.4538H173.738L172.298 15.1018C172.298 14.4298 172.162 13.8458 171.89 13.3498C171.618 12.8538 171.242 12.4698 170.762 12.1978C170.282 11.9098 169.722 11.7658 169.082 11.7658C168.442 11.7658 167.874 11.9098 167.378 12.1978C166.898 12.4698 166.522 12.8618 166.25 13.3738C165.978 13.8698 165.842 14.4618 165.842 15.1498V15.7258C165.842 16.4298 165.994 17.0538 166.298 17.5978C166.618 18.1258 167.058 18.5338 167.618 18.8218C168.194 19.0938 168.866 19.2298 169.634 19.2298C170.322 19.2298 170.922 19.1258 171.434 18.9178C171.962 18.7098 172.442 18.3978 172.874 17.9818L174.866 20.1418C174.274 20.8138 173.53 21.3338 172.634 21.7018C171.738 22.0538 170.706 22.2298 169.538 22.2298ZM183.551 22.2298C182.031 22.2298 180.847 21.8458 179.999 21.0778C179.151 20.2938 178.727 19.1338 178.727 17.5978V6.26978H182.471V17.5498C182.471 18.0938 182.615 18.5178 182.903 18.8218C183.191 19.1098 183.583 19.2538 184.079 19.2538C184.671 19.2538 185.175 19.0938 185.591 18.7738L186.599 21.4138C186.215 21.6858 185.751 21.8938 185.207 22.0378C184.679 22.1658 184.127 22.2298 183.551 22.2298ZM176.735 12.2938V9.41378H185.687V12.2938H176.735ZM188.965 22.0378V5.23778H196.597C198.421 5.23778 200.029 5.58978 201.421 6.29378C202.813 6.98178 203.901 7.94978 204.685 9.19778C205.469 10.4458 205.861 11.9258 205.861 13.6378C205.861 15.3338 205.469 16.8138 204.685 18.0778C203.901 19.3258 202.813 20.3018 201.421 21.0058C200.029 21.6938 198.421 22.0378 196.597 22.0378H188.965ZM192.853 18.8458H196.405C197.525 18.8458 198.493 18.6378 199.309 18.2218C200.141 17.7898 200.781 17.1818 201.229 16.3978C201.693 15.6138 201.925 14.6938 201.925 13.6378C201.925 12.5658 201.693 11.6458 201.229 10.8778C200.781 10.0938 200.141 9.49378 199.309 9.07778C198.493 8.64578 197.525 8.42978 196.405 8.42978H192.853V18.8458ZM214.937 22.2298C213.465 22.2298 212.169 21.9418 211.049 21.3658C209.945 20.7898 209.089 20.0058 208.481 19.0138C207.873 18.0058 207.569 16.8618 207.569 15.5818C207.569 14.2858 207.865 13.1418 208.457 12.1498C209.065 11.1418 209.889 10.3578 210.929 9.79778C211.969 9.22178 213.145 8.93378 214.457 8.93378C215.721 8.93378 216.857 9.20578 217.865 9.74978C218.889 10.2778 219.697 11.0458 220.289 12.0538C220.881 13.0458 221.177 14.2378 221.177 15.6298C221.177 15.7738 221.169 15.9418 221.153 16.1338C221.137 16.3098 221.121 16.4778 221.105 16.6378H210.617V14.4538H219.137L217.697 15.1018C217.697 14.4298 217.561 13.8458 217.289 13.3498C217.017 12.8538 216.641 12.4698 216.161 12.1978C215.681 11.9098 215.121 11.7658 214.481 11.7658C213.841 11.7658 213.273 11.9098 212.777 12.1978C212.297 12.4698 211.921 12.8618 211.649 13.3738C211.377 13.8698 211.241 14.4618 211.241 15.1498V15.7258C211.241 16.4298 211.393 17.0538 211.697 17.5978C212.017 18.1258 212.457 18.5338 213.017 18.8218C213.593 19.0938 214.265 19.2298 215.033 19.2298C215.721 19.2298 216.321 19.1258 216.833 18.9178C217.361 18.7098 217.841 18.3978 218.273 17.9818L220.265 20.1418C219.673 20.8138 218.929 21.3338 218.033 21.7018C217.137 22.0538 216.105 22.2298 214.937 22.2298ZM231.238 22.0378V19.5178L230.998 18.9658V14.4538C230.998 13.6538 230.75 13.0298 230.254 12.5818C229.774 12.1338 229.03 11.9098 228.022 11.9098C227.334 11.9098 226.654 12.0218 225.982 12.2458C225.326 12.4538 224.766 12.7418 224.302 13.1098L222.958 10.4938C223.662 9.99778 224.51 9.61378 225.502 9.34178C226.494 9.06978 227.502 8.93378 228.526 8.93378C230.494 8.93378 232.022 9.39778 233.11 10.3258C234.198 11.2538 234.742 12.7018 234.742 14.6698V22.0378H231.238ZM227.302 22.2298C226.294 22.2298 225.43 22.0618 224.71 21.7258C223.99 21.3738 223.438 20.9018 223.054 20.3098C222.67 19.7178 222.478 19.0538 222.478 18.3178C222.478 17.5498 222.662 16.8778 223.03 16.3018C223.414 15.7258 224.014 15.2778 224.83 14.9578C225.646 14.6218 226.71 14.4538 228.022 14.4538H231.454V16.6378H228.43C227.55 16.6378 226.942 16.7818 226.606 17.0698C226.286 17.3578 226.126 17.7178 226.126 18.1498C226.126 18.6298 226.31 19.0138 226.678 19.3018C227.062 19.5738 227.582 19.7098 228.238 19.7098C228.862 19.7098 229.422 19.5658 229.918 19.2778C230.414 18.9738 230.774 18.5338 230.998 17.9578L231.574 19.6858C231.302 20.5178 230.806 21.1498 230.086 21.5818C229.366 22.0138 228.438 22.2298 227.302 22.2298ZM238.13 22.0378V4.22978H241.874V22.0378H238.13ZM249.693 22.2298C248.589 22.2298 247.525 22.1018 246.501 21.8458C245.493 21.5738 244.693 21.2378 244.101 20.8378L245.349 18.1498C245.941 18.5178 246.637 18.8218 247.437 19.0618C248.253 19.2858 249.053 19.3978 249.837 19.3978C250.701 19.3978 251.309 19.2938 251.661 19.0858C252.029 18.8778 252.213 18.5898 252.213 18.2218C252.213 17.9178 252.069 17.6938 251.781 17.5498C251.509 17.3898 251.141 17.2698 250.677 17.1898C250.213 17.1098 249.701 17.0298 249.141 16.9498C248.597 16.8698 248.045 16.7658 247.485 16.6378C246.925 16.4938 246.413 16.2858 245.949 16.0138C245.485 15.7418 245.109 15.3738 244.821 14.9098C244.549 14.4458 244.413 13.8458 244.413 13.1098C244.413 12.2938 244.645 11.5738 245.109 10.9498C245.589 10.3258 246.277 9.83778 247.173 9.48578C248.069 9.11778 249.141 8.93378 250.389 8.93378C251.269 8.93378 252.165 9.02978 253.077 9.22178C253.989 9.41378 254.749 9.69378 255.357 10.0618L254.109 12.7258C253.485 12.3578 252.853 12.1098 252.213 11.9818C251.589 11.8378 250.981 11.7658 250.389 11.7658C249.557 11.7658 248.949 11.8778 248.565 12.1018C248.181 12.3258 247.989 12.6138 247.989 12.9658C247.989 13.2858 248.125 13.5258 248.397 13.6858C248.685 13.8458 249.061 13.9738 249.525 14.0698C249.989 14.1658 250.493 14.2538 251.037 14.3338C251.597 14.3978 252.157 14.5018 252.717 14.6458C253.277 14.7898 253.781 14.9978 254.229 15.2698C254.693 15.5258 255.069 15.8858 255.357 16.3498C255.645 16.7978 255.789 17.3898 255.789 18.1258C255.789 18.9258 255.549 19.6378 255.069 20.2618C254.589 20.8698 253.893 21.3498 252.981 21.7018C252.085 22.0538 250.989 22.2298 249.693 22.2298Z" fill="#0065E3"/>
</svg>
